<?xml version="1.0" encoding="UTF-8"?>
<svg id="Layer_1" data-name="Layer 1" xmlns="http://www.w3.org/2000/svg" version="1.1" viewBox="0 0 1920 1080">
  <defs>
    <style>
      .cls-1 {
        font-size: 48px;
      }

      .cls-1, .cls-2, .cls-3, .cls-4, .cls-5, .cls-6 {
        fill: #000;
      }

      .cls-1, .cls-4 {
        font-family: Jokerman-Regular, Jokerman;
      }

      .cls-1, .cls-4, .cls-7 {
        isolation: isolate;
      }

      .cls-2, .cls-8, .cls-9, .cls-10, .cls-11, .cls-12, .cls-13, .cls-14, .cls-15, .cls-6 {
        stroke-miterlimit: 10;
      }

      .cls-2, .cls-16, .cls-17, .cls-12 {
        stroke: #000;
      }

      .cls-3, .cls-18, .cls-19, .cls-20, .cls-21, .cls-22, .cls-23 {
        stroke-width: 0px;
      }

      .cls-4 {
        font-size: 32px;
      }

      .cls-8 {
        fill: #006837;
        stroke: #8cc63f;
      }

      .cls-18 {
        fill: #ff0;
      }

      .cls-16, .cls-10, .cls-12 {
        fill: #f0bd91;
      }

      .cls-16, .cls-17 {
        stroke-miterlimit: 10;
        stroke-width: 1px;
      }

      .cls-19 {
        fill: red;
      }

      .cls-9 {
        stroke: #fff;
      }

      .cls-9, .cls-17, .cls-13 {
        fill: none;
      }

      .cls-20 {
        fill: #960;
      }

      .cls-10 {
        stroke: #f0bd91;
      }

      .cls-21 {
        fill: #603813;
      }

      .cls-22 {
        fill: #111010;
      }

      .cls-5 {
        font-family: MyriadPro-Regular, 'Myriad Pro';
        font-size: 12px;
      }

      .cls-11 {
        fill: #39703e;
      }

      .cls-11, .cls-15 {
        stroke: #39703e;
      }

      .cls-23 {
        fill: #fff;
      }

      .cls-13, .cls-6 {
        stroke: #111010;
      }

      .cls-14 {
        fill: #ccc;
        stroke: #231f20;
        stroke-linecap: round;
      }

      .cls-15 {
        fill: #afa;
        stroke-width: 4px;
      }
    </style>
  </defs>
  <g>
    <g>
      <rect class="cls-8" x=".1" y="1.3" width="1920" height="1078"/>
      <path class="cls-11" d="M152.1,1078.3h-73c3.5-325,3.8-650,1-975-.3-34.3-.6-68.7-1-103h73v1078Z"/>
      <rect class="cls-11" x="358.1" y=".3" width="62" height="1080"/>
      <rect class="cls-11" x="689.1" y="-.7" width="72" height="1080"/>
      <rect class="cls-11" x="960.1" y="-.7" width="73" height="1079"/>
      <rect class="cls-11" x="1315.1" y=".3" width="66" height="1077"/>
      <rect class="cls-11" x="1595.1" y="2.3" width="66" height="1077"/>
      <rect class="cls-11" x="1774.1" y="2.3" width="66" height="1077"/>
      <path class="cls-14" d="M253.3,477.6"/>
      <path class="cls-14" d="M253.3,343.1"/>
      <rect class="cls-9" x="1647.1" y="370.3" width="250" height="358"/>
      <rect class="cls-9" x="1711.1" y="474.3" width="224" height="148" transform="translate(2371.4 -1274.8) rotate(90)"/>
      <g>
        <rect class="cls-9" x="19.1" y="368.3" width="250" height="358"/>
        <rect class="cls-9" x="-9.4" y="468.8" width="213" height="156" transform="translate(643.9 449.7) rotate(90)"/>
        <path class="cls-9" d="M324.1,538.3c0,30-23.3,55.3-55,62.7v-125.5c31.7,7.5,55,32.7,55,62.7Z"/>
      </g>
      <path class="cls-9" d="M1647.1,479.9v135.9c-34-8.2-59-35.5-59-68s25-59.7,59-68Z"/>
      <circle class="cls-9" cx="914.1" cy="531.3" r="146"/>
      <line class="cls-9" x1="912.1" y1="18.3" x2="916.1" y2="1044.3"/>
      <rect class="cls-9" x="19.1" y="18.3" width="1878" height="1038"/>
    </g>
    <g>
      <path class="cls-18" d="M426.5,497.7h194.2c20.7,0,37.5,15.4,37.5,34.3v325.2c0,18.9-16.8,34.3-37.5,34.3h-194.2c-20.7,0-37.5-15.4-37.5-34.3v-325.2c0-18.9,16.8-34.3,37.5-34.3Z"/>
      <path class="cls-3" d="M633.9,511.2s-16.6,116.7-121,108.7c-77.8-6-92.6-85.4-99.6-119.3-.3-1.5-16.9,9.4-16.8,10.9,4.7,70.1,56.4,128.7,115.1,133.2,64.1,4.9,135.9-55.2,139.3-133.9l-18.3-11.7,1.2,12Z"/>
      <polygon class="cls-3" points="320.8 784.1 395.5 581.8 417.1 595.9 342.5 798.1 320.8 784.1"/>
      <path class="cls-3" d="M652.5,590.4l78.3,162.6c2.3,4.8,1.3,11.1-2.3,14.1l-6.1,5c-3.6,3-8.4,1.5-10.8-3.3l-78.3-162.6c-2.3-4.8-1.3-11.1,2.3-14.1l6.1-5c3.6-3,8.4-1.5,10.8,3.3h0Z"/>
      <ellipse class="cls-19" cx="393.8" cy="736.1" rx="33" ry="62.5"/>
      <rect class="cls-3" x="379.4" y="702.6" width="29.7" height="6.4"/>
      <rect class="cls-3" x="379.4" y="713.3" width="29.7" height="6.4"/>
      <rect class="cls-3" x="379.4" y="729.3" width="29.7" height="6.4"/>
      <rect class="cls-3" x="379.4" y="743.2" width="29.7" height="6.4"/>
      <rect class="cls-3" x="379.4" y="757" width="29.7" height="6.4"/>
      <path class="cls-10" d="M524.1,207h0c66.1,0,119.7,49,119.7,109.5v113.9c0,60.5-53.6,109.5-119.7,109.5h0c-66.1,0-119.7-49-119.7-109.5v-113.9c0-60.5,53.6-109.5,119.7-109.5Z"/>
      <g>
        <path class="cls-21" d="M527,129c-6.8-1.5-13.9,1.5-19,7.9-1,1.3-2,2.8-3.2,3.6-1.4,1-3.1,1.1-4.7,1.1-13.3.3-26.8.7-40.1,1.1-13.2.3-26.6.7-39.1,6.8-18.1,8.7-32.6,28.6-50.8,37-8.4,3.9-17.8,5.4-24.8,13.2-5.3,6-9.9,15.8-16.6,14.7,6.6-3.5,13.3-7,20.4-7s4.4,10.4,8.1,16.6c3.7,6.3,7.6-2.7,4.3-1.5s-8.1,3.1-12.1,4.9c-4,1.8-4.3,6.6,1.1,8.2,5.4,1.6,0,0,.2,0,7.1,2.1,7.8,8.2,1.4,12.9-6.3,4.7-3.9,3.3-5.5,5.5-4.6,6.5-6,18.4-1.3,24.6,1.5,2,3.6,3.3,5.5,4.5l.7,11.2c5.1,3.1,27.9,3.9,26.5,0-8-23.5-1.8-7.9,0,0,8.2,34.6-4.1,42.7,1.6,40.5,22.2-8.1-20.9,13.2,0,0,6-3.8,98.1-41.3,95.6-36.3-2.5,5,16.3-14.3,16.1-13.9-2.9,5.2,1.4,1.1,7.2-3.2,1.8-1.3-.2-6.1,1.6-7.5,6.8-5.5,6.7-9.3,8,1.1,1.6,12.3-10,32.1-4,6.4,1.5-6.4,5.5-6.4,4,0-1.1,5-5.1,4.1,0,0s19.5-3.2,25.7-3.2c13.7,0,25.4,5.2,29.7,2.1,5-3.5-4.6-4.4,0,0s1.7,4.5,6.4,8.5c10.7,9.1,38.3,52.1,50.6,55.5,17,4.7,14.7,64.9,17.7,88.6,1,7.9,61,78,28.8-153.1-.2-1.8,14.1,5.1,15.4,5.9,5.6,3.1.3,0,5.9-3.5,5.5-3.5-4.3,174.8-5.1,173.2-4.4-10.5,4.3-203.4,11.3-210.7,3.1-3.3,6.9-5.1,9.7-8.7,7.2-9.4,4.7-27.3-2.6-36.6-7.2-9.3-17.4-12.2-27.1-14.4-10.2-2.3-20.4-4.4-30.7-6.2-10.3-1.8-8.2-6.1-2.8-8.6,5.4-2.6,7.1-2.8,10.8-3.6s6.8-3.8,5-6.4c-6.4-9.3-18.2-10-28.1-9.3l-12.1,1c-8.2.6-12.8-5.5-6.4-8.6s.2,0,.3-.1c5.2-2.5,3.2-7.5-3.3-8.4-18-2.8-36.6.4-53.5,9.4-2.7,1.4-6,2.9-8.2.1-.9-1.2-1.4-2.8-1.9-4.3-2.7-7.1-8.8-11.4-14.5-10.4"/>
        <path class="cls-20" d="M527.3,127.4c-6.3-1.3-12.7.7-17.8,5.8-5.1,5-2.3,2.6-3.4,3.9-1.6,2-3.2,2.7-5.4,2.8-4.2.2-8.4.2-12.5.3-8.2.2-16.3.4-24.5.6s-15.8.3-23.5,1.4c-7.8,1.1-14.9,3-21.9,6.7-7,3.7-12,7.9-17.6,12.7-5.6,4.8-11.6,10.2-17.6,14.8-6,4.6-12.3,8.1-19,10.7-6.8,2.6-14,5-19.6,11.3-4.6,5.1-9,15-15.8,14.3l.3,3.1c5.5-2.9,11.1-6,17-6.7s4.5-.9,5.8,1.6c1.3,2.5,1.3,4.4,1.8,6.5.7,3.4,1.8,9.3,5.2,8.9s6.2-1.9,4.6-4.7-3.5,0-4.6.4c-2.8,1.1-5.6,2.2-8.4,3.4s-7.5,4.1-4.8,8.6c2.7,4.6,3,2.7,4.7,3.3s4.7,1.5,4.9,4.2c.2,2.7-2.6,4.9-4,6.1-2.1,1.6-4.1,3.6-5.7,6.1-3.1,4.7-4.7,11.2-4.2,17.3.6,6.1,4.3,11,9,13.8l-.6-1.4c.2,3.7.5,7.5.7,11.2s.2,1.2.6,1.4c3.4,1.9,29.7,6.3,28.3-1.8-1.4-8.1-1.3-3.7-1.8-5.4-.6-1.7-.9-2.6-1.3-3.8-.4-1.3-.5-1.5-.6-2.1s-.2-1.1-.2-.5l-.9,1.5h0c-.4-.1-.8-.3-1.2-.4-.3-.3,0,.2.2.5.2.6.5,1.4.7,2,.6,1.9,1.3,3.8,1.8,5.8,2,6.9,3.3,14.4,3.7,21.8.4,7.4,0,10.6-1.3,15.7s-1.6,4.2-1.5,6c.2,3.3,3.8,1.3,5.1.9s2.3-.9,3.5-1.1.4,0,.4,0c0,.3-.9-2.7-.6-2.5,0,0,.2,0,0,0-.6.1-1.3.9-1.8,1.2-.8.5-1.7,1-2.6,1.4-1.8,1-3.7,1.8-5.6,2.6s-.6.2-1,.3-.3,0-.4,0c.4-1,1.4,2.6.8,2.5.2,0-.2,0,0,0,.2,0,.7-.6,1-.7,1.8-1.4,4-2.8,5.5-3.5,4.4-2.2,9-4.1,13.5-6,15.8-6.7,31.7-13,47.6-19.1,15.9-6.1,14.2-5.3,21.4-7.8,7.2-2.5,4.9-1.6,7.3-2.3s2.6-.4,3.9-.7,0,0-.2-.1c-.4-.7-.4-2.8-.6-1.1s.8,1.7,1.5,1.5,1.9-1.5,2.7-2.1c1.8-1.6,3.6-3.1,5.4-4.7s3.6-3.2,5.5-4.8c1.8-1.6,1.4-1.2,2-1.7s1.1-.7.6-.5l-1.4-1.9c-.2,1.1-1.2,1.7-.9,3.1.3,1.4,1.1,1.5,1.9,1.3s2.1-1.3,3-1.9c1.7-1.3,3.8-2.5,5.3-4.1,1.5-1.6,1.1-2.1,1.1-3.5s0-1.8,0-2.7c0-1.4,1-1.7,1.8-2.5s2-1.9,3-2.9.7-.5,1-.9-.2.2-.2-.3c1.6,5.8,1.2,11.8-.7,17.4-1.9,5.5-.7,2-1.2,3s-1.1,1.5-1.2,2-.2,0,.2,0,.2.5.4.2,0-1.3,0-1.5c0-.7.2-1.5.3-2.3.3-2.3.8-4.7,1.4-6.9q.6-2.2,1.2-3c.6-.7.6-.9.7,0s-.3,2.6-.6,3.3c-.3.7-.7.9-.8,1.1-.6,2.2.8,1.5,1.2,1.3s.8-1,.7-.9c.7-.6,1.4-1.3,2.3-1.7,2.7-1.4,5.8-1.7,8.6-2,2.8-.3,6.5-.3,9.7-.3,7.6,0,15.2.7,22.7,2.1,7.6,1.4,5.9,1.2,8.8,1.1,3-.1,4.3-.5,5.8-2.6,2.5-3.8-3.5-6.6-4.5-2.7-1,3.9,2.5,4.6,3.5,6.1s1,1.9,1.4,2.9c.8,1.5,2,2.6,3.2,3.6,3.5,3.1,6.7,7,9.8,10.9s8.5,10.9,12.8,16.3c4.3,5.4,8.8,11,13.4,16.1s7.3,8,11.6,10.7c4.3,2.7,3.3,1.4,4.8,2.2s3,2.3,4.1,4.2c2.9,4.6,4.3,10.6,5.5,16.2,2.9,14.7,3.4,30.1,4.2,45.2.8,15.2.6,12.8,1.3,19.1s.2,2.7.8,3.9c2.2,4.8,6.2,8.7,9.9,11.4,3.7,2.7,10.6,5.5,15.9,2.6,7.6-4.5,10.7-17.1,12.2-27,1.5-9.9,2-20.5,2.1-30.8,0-15.3-.8-30.6-2-45.8-1.8-21.3-4.3-42.6-7.2-63.7v-.4c0-1.2-.3-1.3-1-.2,0,.2-.2-.2,0,0s.7.1.9.2c1,.2,1.9.6,2.9,1.1,2.3,1,4.7,1.9,7,3.1,2.3,1.2,3.3,1.6,4.9,2.5s1.8,1.1,2.6.4.6-1.4.8-2.2c.2-.9.7-1.1,1.1-1.7l.5-.4c-.3-.1-.6-.3-.7-.6-.5-.5-.2-.3-.2-.2-.4-.3,0-.3,0,.1,0-.3,0,0,0,.5v1.2c0,2.6,0,5.1,0,7.7,0,9-.2,17.9-.5,26.9-.6,24.9-1.4,49.8-2.3,74.7-.9,24.9-1.3,37.6-2.3,56.2,0,1,0,1.9-.2,3s0,.6,0,1c0,.5-.2.1,0,.3s0,.1,0,.1c-.4-.3,2.2-.3,2.2-.3l-.2-.4c-.2-.7-.2-1.6-.3-2.3-.6-6-.6-13.3-.6-19.8,0-24,1-48,2-71.9,1.2-25.8,2.7-51.6,4.8-77.3s1.6-17.8,2.9-26.6c1.3-8.7.8-5.3,1.4-7.9.6-2.6.2-1.1.6-1.9s0-.2.2-.4c1.1-1.5,2.7-2.5,4-3.5,3.1-2.5,6.1-5,8-9.3,1.9-4.3,2.3-7.5,2.3-11.4.2-8.4-2.4-17.2-6.8-23.2-4.4-6-12.6-10.9-19.8-13.1-8.9-2.8-18.1-4.5-27.2-6.2-9.1-1.7-4.4-.9-6.6-1.2s-4.8-.6-7.2-1.4-3.1-1.1-3.1-2.6c0-1.5,2.8-2.7,3.6-3,2.2-1,4.4-1.7,6.7-2.3s4-.7,5.9-1.8c1.9-1.1,4.3-4.1,2.7-7.3-1.5-3.2-5-5.8-7.6-7.1-2.7-1.4-6.6-2.7-10-3.1-5.3-.7-10.5-.3-15.8.1s-9.2,1.5-13.3,0c-4.1-1.5-2.9-1.2-2.9-2.6s2.1-2.1,2.9-2.6c2-1.1,4.1-3.4,3.1-6.6s-4.5-4.4-6.8-4.8c-4.4-.7-8.9-1.1-13.4-1-9.1,0-18.2,1.6-26.9,4.5-8.8,2.9-8.4,3.2-12.5,5.2-4.1,2-3.5,1.9-5.3,2.2s-3.5-1.4-4.4-3.9c-2.9-7.9-9.1-13.2-15.8-12.2s-1.5,3.4,0,3.2c3.8-.5,7.5,1,10.3,4.3,2.8,3.3,2.5,3.7,3.4,6s1.6,4.1,3.2,5.1c3.3,2.1,7.2-.5,10.3-2.1,4.4-2.1,9-3.9,13.6-5.4,9.1-2.8,18.4-4.1,27.7-3.6,9.3.4,4.3.2,6.5.5s4.7.3,6.7,1.7c3.8,2.6-1.7,4.3-3.2,5.7s-2.2,4.4-.7,6.5c1.4,2.1,5.2,3.5,7.9,3.7,4,.2,8.1-.5,12.1-.9,5.9-.4,12.1-.7,17.9,1,5.9,1.7,7.1,2.8,9.9,6.1,2.8,3.3,2.2,2.6.4,3.9-1.8,1.4-4.7,1.6-6.9,2.2-2.3.6-4,1.3-6,2.1-2,.9-3.3,1.4-4.4,3-1.1,1.6-1,5,.6,6.7,3,3.1,7.6,2.9,11.2,3.5,3.5.6,9.7,1.8,14.6,2.9,14.5,3.1,35.8,5.1,41.8,26.7,2.4,8.6,2.1,19.3-3.8,25.4-2.7,2.8-6.3,4.3-8.5,7.5-2.3,3.2-.6,1.2-.9,1.8-1.9,5.4-2.4,12-3.1,17.8-2.7,23.4-4.1,47.1-5.5,70.5-1.4,26.5-2.7,53-3.1,79.6-.2,9.6-.3,19.1-.2,28.7.2,9.6.2,6.1.4,9.1.2,3,.2,3.8.9,5.1,1.4,2.6,2.3-.6,2.4-2.1s.2-4.3.4-6.5c.4-8.5.7-17.1,1.1-25.6,1-25.2,1.8-50.3,2.6-75.4.6-19.5,1.4-39.2,1.2-58.7,0-1.7,0-3.7-.2-5.4-.8-4.2-5.3.6-5.4,3.3,0,2.7.5-1.4.7-.3,0-.3-2.1-1.1-2.3-1.2-.5-.2-1-.5-1.5-.7-2.1-1.1-4.3-2-6.4-3-2.2-1-9.4-5.2-8.9.3.5,5.5,1.7,12.2,2.4,18.1s1.4,11.5,2.1,17.3c1.1,10,2.2,20.2,3,30.3,1.2,15.4,2.1,30.7,1.9,46.2-.2,15.5-.6,20.5-2.3,30.5-1.7,10-2.5,12.2-5.3,17.2-2.8,5-8.7,8.3-14.1,6.2-5.5-2.1-8.8-5.7-12.1-10.2-3.3-4.6-.6-.9-.9-1.4s-.2-.2-.6-1-.3-.6-.5-1.1,0,.2,0,0,0-.3,0-.5c-1.4-14.1-1.7-28.3-2.7-42.4-1-14.1-1.4-15-2.7-22.4-1.3-7.4-2.5-12.2-5.2-17.2-2.7-5-2.4-3.9-3.9-5.3s-3.1-1.8-4.8-2.6c-4.2-1.7-8-5.8-11.3-9.4-9.5-10.1-17.9-21.9-26.8-32.9-8.8-11-6.6-8.3-10.4-11.8-3.8-3.5-2.1-1.7-3-2.9s-1-2-1.5-3-2.1-3.4-3.2-3.8-1-1.2-.6.4c.4,1.6.2,0,.4,0,.4,0,.5.4.2-.2-.7-1.7.2-.3,0-.4s-.7.6-.8.6c-1,.6-2,.7-3.1.7-3.3,0-6.7-.6-9.9-1.3-7.5-1.4-14.9-1.8-22.4-1.9-7.6-.1-12.8-.4-18.4,2.5-5.6,2.9-5.3,3.1-4.7,6,.6,2.9,3.1.9,3.9-.5,1.3-2.1,2.3-6.9.2-8.9s-4.3,1.3-5.1,3.6c-1.3,3.5-2,8-2.3,11.8-.2,3.8,0,3.9,1.4,4.4,2.8,1.1,4.9-6.5,5.5-9,.6-2.5,1.3-5.7,1.4-8.6,0-3-.2-6.6-1.2-9.2-1-2.6-2-2.2-3.4-1.2-1.4,1.1-1.5,1.4-2.3,2.1-1.1,1.2-2.7,2-3.7,3.4-1,1.4-.9,2.7-.9,4.1s.2,1.9-.2,2.7c-.4.7-1.7,1.4-2.4,1.9-1.4,1.1-2.9,2.3-4.4,3.3,0,0-.5.2-.5.3-.4.6.5,1.6,1,1.4s.7-1.4.8-1.7c.2-1.2-.6-2.2-1.4-1.9s-1.8,1.5-2.7,2.1c-1.8,1.6-3.6,3.2-5.4,4.7s-3.6,3.2-5.5,4.8c-1.8,1.6-1.4,1.2-2,1.7s-1.1.6-.6.5l1.5,1.5c-.2,1.8,0-.2,0-.6s-.3-.9-.6-1.1c-.5-.3-1-.3-1.5-.3-1.8.1-3.7.7-5.5,1.3-6.8,2-13.6,4.6-20.3,7-17.4,6.5-34.6,13.3-51.7,20.6-17.1,7.3-10.6,4.4-15.8,6.9-5.2,2.6-4,2.3-5.9,3.7-1.9,1.4-1.5,1-2,1.7-.8,1.3-.3,2.8.9,3s3.2-1,4.5-1.6c2.1-1,4.2-2,6.3-3.2s3.9-2.1,2.4-4.2-5,.4-6.3,1-1.4.4-2,.7-.2,0-.2,0c0-.3.6.9.7,1,.2.3,0,.6.2-.1s.3-1,.5-1.5c1.2-4.1,1.9-8.2,2.3-12.6.7-12.9-2.1-26.2-6.3-37.8-4.3-11.5-.9-2.6-2-2.2s-.8.9-.9,1.5.5,2,.7,2.8c.8,2.7,1.8,5.3,2.7,7.9s.5,2.1.8,2.2c0,0,0-.7.2-.9-.3.1-.6.4-1,.5-1.3.4-2.7.5-3.9.6-3.7.3-7.4.1-11-.2-3.6-.3-6.3-.5-9-2l.6,1.4c-.2-3.7-.5-7.5-.7-11.2s-.2-1.2-.6-1.4c-2.3-1.4-4.8-2.9-6.3-5.9-1.5-3-1.7-5.8-1.5-8.7.3-7,3.5-12.8,8-16.4,4.4-3.6,7.3-5.8,5.8-11.1-1.5-5.3-2.1-3.5-3.6-4.4s-5.2-1.2-6.2-3.3c-1-2.1,4.7-4.2,5.9-4.7,1.7-.7,3.4-1.4,5.1-2s1.8-.6,2.7-1.1,1.1-.3,1-.4l-.8-1.1c-.8-2.9.7-1.2,0-1.2s-.6.4-.7.5c-.5.3-1.1.6-1.6.7s-.8,0-1.2-.6-.9-2.2-1.2-3.3c-1-3.5-1.3-7.9-3.2-10.8-1.9-2.9-6.8-2.5-10-1.7-5.2,1.2-10.1,3.8-15,6.4s-1,3,.3,3.1c5.6.6,9.7-5,13.3-9.8,3.6-4.8,4.5-6.1,7.3-8.3,2.8-2.2,6.1-3.8,9.3-5.2,6.3-2.6,12.6-4.6,18.6-8.3,6.3-3.9,12.1-8.9,17.8-13.9,5.8-5,11.4-10,17.4-14.2,6.5-4.6,13.4-7.7,20.7-9.4s15.4-2.2,23.2-2.5c7.8-.2,16.2-.4,24.3-.6,8.1-.2,9.4-.2,14.1-.4s8.1.7,11.3-2c3.1-2.8,2.5-3.1,3.9-4.6,1.4-1.5,3.2-3.1,5-4.2,3.6-2.1,7.7-2.9,11.7-2.1,3.9.7,2.2-2.8.6-3.1h0l-.3.3h0Z"/>
      </g>
      <g>
        <ellipse class="cls-13" cx="568.6" cy="360.6" rx="23.3" ry="19.2"/>
        <ellipse class="cls-6" cx="568.6" cy="361.7" rx="13.7" ry="12.8"/>
      </g>
      <g>
        <ellipse class="cls-13" cx="486.3" cy="360.6" rx="19.7" ry="19.2"/>
        <ellipse class="cls-6" cx="485.9" cy="360.6" rx="15.3" ry="12.8"/>
      </g>
      <path class="cls-22" d="M521.8,402.6c1.4,7.8.8,16.2-1.8,23.5s-2.6,6.6-1.6,10.2c1,3.6,3.3,5.2,5.8,3.8s3.6-6.3,5.6-9.4c2-3.1-.6-3.8-1.7-2.2-1,1.6-1.7,3.5-2.5,5.4s-1.8,3.7-3.4,3.6-1.8-1.8-1.8-3.2c-.2-2.1.8-4.3,1.4-6.1,3.1-8.2,3.9-17.5,2.2-26.4-1.7-8.9-2.7-1.2-2.3.9h0l.2-.2h0Z"/>
      <path class="cls-22" d="M521.1,404.8c-.6,5.2-1.2,10.5-1.8,15.7l-.9,7.8c-.2,2.2-.6,4.5-.6,6.7,0,3.9,1.2,7.6,4.1,9.1,2.9,1.5,5.5.7,8.1-.2,2.6-1,1-1.2.8-1.9-.7-2.6-1.4-5-2.2-7.6s-.8-1.4-1.4-1.1c-1.8.6-2.7,2.8-2.4,5.1s2.6,1.2,2.3-.9c-.2-2,.3-1.1.7-1.2l-1.4-1.1c.7,2.6,1.4,5,2.2,7.6l.8-1.9c-2.1.7-4.7,1.4-6.8.2-2.1-1.2-2.6-5.4-2.2-8.6,1-9,2.1-17.8,3.1-26.7.2-2-2.1-2.9-2.3-.9h0v-.2h0Z"/>
      <path class="cls-22" d="M528.9,443.8c1.5,0,1.5-3.2,0-3.2s-1.5,3.2,0,3.2h0Z"/>
      <path class="cls-22" d="M528.9,443.8c1.5,0,1.5-3.2,0-3.2s-1.5,3.2,0,3.2h0Z"/>
      <path class="cls-23" d="M465,486.9s8.3-15.3,65.2-14.1c56.8,1.2,61.3,16.8,61.3,16.8,1.4-13.6-25.8-25.1-60.7-25.9-34.9-.7-64.3,9.6-65.6,23.2h0Z"/>
      <polygon class="cls-2" points="535.7 883.5 573.7 883.5 591.9 1018.6 535.7 1030.3 535.7 883.5"/>
      <polygon class="cls-2" points="453.7 883.5 493.1 883.5 493.1 1021.1 436 1016 453.7 883.5"/>
      <path class="cls-12" d="M316.8,769.3h34.8v38.6c-.1,10-10,17.5-20.8,15.7l-14-2.3v-52.1Z"/>
      <path class="cls-16" d="M720.9,759.3h0c9.4-5.2,21.7-1.4,25.7,8l4.2,10c2.6,6,.9,12.9-4.1,17.4l-1.8,1.6c-10.1,9-27.1,4.2-29.8-8.5l-2.5-11.5c-1.4-6.7,1.9-13.4,8.2-16.9Z"/>
      <line class="cls-17" x1="436" y1="729.3" x2="654.6" y2="732.2"/>
      <line class="cls-17" x1="524.5" y1="729" x2="524.5" y2="884.3"/>
      <rect class="cls-2" x="412.1" y="1014.5" width="83" height="41" rx="9.2" ry="9.2"/>
      <rect class="cls-2" x="535.7" y="1014.5" width="83" height="41" rx="9.2" ry="9.2"/>
    </g>
    <text/>
  </g>
  <g>
    <g>
      <rect class="cls-8" x="1940" y="-3.8" width="1920" height="1087.2"/>
      <path class="cls-11" d="M2091.5,1084h-73c3.5-327.8,3.8-655.6,1-983.4-.3-34.6-.6-69.3-1-103.9h73v1087.2Z"/>
      <rect class="cls-11" x="2297.5" y="-3.3" width="62" height="1089.3"/>
      <rect class="cls-11" x="2628.5" y="-4.3" width="72" height="1089.3"/>
      <rect class="cls-11" x="2899.5" y="-4.3" width="73" height="1088.2"/>
      <rect class="cls-11" x="3254.5" y="-3.3" width="66" height="1086.2"/>
      <rect class="cls-11" x="3534.5" y="-1.2" width="66" height="1086.2"/>
      <rect class="cls-11" x="3713.5" y="-1.2" width="66" height="1086.2"/>
      <path class="cls-14" d="M2192.7,478.1"/>
      <path class="cls-14" d="M2192.7,342.5"/>
      <rect class="cls-9" x="3586.5" y="369.9" width="250" height="361.1"/>
      <rect class="cls-9" x="3649.5" y="475.4" width="225.9" height="148" transform="translate(4311.9 -3213.1) rotate(90)"/>
      <g>
        <rect class="cls-9" x="1958.5" y="367.9" width="250" height="361.1"/>
        <rect class="cls-9" x="1929.1" y="469.9" width="214.8" height="156" transform="translate(2584.5 -1488.6) rotate(90)"/>
        <path class="cls-9" d="M2263.5,539.4c0,30.3-23.3,55.7-55,63.3v-126.6c31.7,7.5,55,33,55,63.3Z"/>
      </g>
      <path class="cls-9" d="M3586.5,480.4v137.1c-34-8.3-59-35.8-59-68.5s25-60.2,59-68.5Z"/>
      <ellipse class="cls-9" cx="2853.5" cy="532.3" rx="146" ry="147.3"/>
      <line class="cls-9" x1="2851.5" y1="14.9" x2="2855.5" y2="1049.7"/>
      <rect class="cls-9" x="1958.5" y="14.9" width="1878" height="1046.9"/>
    </g>
    <g>
      <path class="cls-18" d="M2290.9,493.9h188.6c20.1,0,36.4,15.4,36.4,34.5v327c0,19.1-16.3,34.5-36.4,34.5h-188.6c-20.1,0-36.4-15.4-36.4-34.5v-327c0-19.1,16.3-34.5,36.4-34.5Z"/>
      <path class="cls-3" d="M2492.3,507.4s-16.2,117.4-117.5,109.4c-75.5-6-89.9-85.8-96.7-120-.3-1.5-16.4,9.5-16.3,11,4.6,70.5,54.7,129.5,111.8,134,62.3,4.9,132-55.5,135.3-134.7l-17.8-11.7,1.2,12.1Z"/>
      <polygon class="cls-3" points="2188.3 781.9 2260.8 578.4 2281.8 592.6 2209.3 796 2188.3 781.9"/>
      <path class="cls-3" d="M2510.3,587.1l76,163.6c2.3,4.8,1.2,11.2-2.3,14.2l-5.9,5c-3.5,3-8.2,1.5-10.5-3.3l-76-163.6c-2.3-4.8-1.2-11.2,2.3-14.2l5.9-5c3.5-3,8.2-1.5,10.5,3.3h0Z"/>
      <path class="cls-10" d="M2385.7,201.4h0c64.2,0,116.3,49.3,116.3,110.2v114.5c0,60.8-52.1,110.2-116.3,110.2h0c-64.2,0-116.3-49.3-116.3-110.2v-114.5c0-60.8,52.1-110.2,116.3-110.2Z"/>
      <g>
        <path class="cls-21" d="M2388.5,123c-6.6-1.5-13.5,1.5-18.4,7.9-1,1.3-2,2.8-3.1,3.6-1.4,1-3,1.1-4.5,1.1-13,.3-26,.8-38.9,1.1-12.8.3-25.8.8-37.9,6.9-17.6,8.8-31.7,28.8-49.3,37.2-8.2,4-17.3,5.5-24.1,13.3-5.2,6-9.6,15.9-16.2,14.8,6.4-3.5,13-7.1,19.8-7.1s4.3,10.4,7.9,16.7c3.6,6.3,7.3-2.7,4.1-1.5s-7.9,3.1-11.8,4.9c-3.9,1.8-4.1,6.7,1.1,8.3,5.2,1.6,0,0,.2,0,6.9,2.1,7.6,8.3,1.4,13-6.2,4.7-3.7,3.3-5.3,5.6-4.4,6.5-5.9,18.5-1.2,24.8,1.5,2,3.5,3.3,5.4,4.5l.7,11.3c5,3.1,27.1,4,25.8,0-7.8-23.6-1.8-7.9,0,0,8,34.8-4,42.9,1.6,40.8,21.5-8.2-20.3,13.3,0,0,5.9-3.9,95.3-41.5,92.9-36.5-2.4,5,15.8-14.4,15.6-14-2.8,5.3,1.3,1.1,7-3.2,1.7-1.3-.2-6.1,1.6-7.5,6.6-5.6,6.5-9.3,7.8,1.1,1.6,12.3-9.8,32.3-3.9,6.4,1.5-6.4,5.3-6.4,3.9,0-1.1,5-4.9,4.1,0,0,4.9-4.1,19-3.2,25-3.2,13.3,0,24.7,5.3,28.9,2.1,4.8-3.5-4.4-4.4,0,0s1.6,4.5,6.2,8.6c10.4,9.1,37.2,52.4,49.2,55.8,16.5,4.7,14.3,65.3,17.2,89.1.9,7.9,59.2,78.5,27.9-154-.2-1.8,13.7,5.2,15,5.9,5.5,3.1.3,0,5.7-3.5,5.4-3.5-4.2,175.8-4.9,174.2-4.3-10.5,4.2-204.6,11-212,3-3.3,6.7-5.2,9.4-8.8,6.9-9.4,4.5-27.5-2.5-36.8-7-9.3-16.9-12.2-26.3-14.5-9.9-2.4-19.8-4.4-29.8-6.2-10-1.8-8-6.1-2.7-8.7,5.2-2.6,6.9-2.8,10.5-3.6,3.6-.9,6.6-3.9,4.8-6.4-6.2-9.3-17.7-10.1-27.3-9.3l-11.8,1c-8,.6-12.4-5.6-6.2-8.7,6.2-3.1.2,0,.3-.1,5.1-2.5,3.1-7.5-3.2-8.5-17.5-2.8-35.5.4-52,9.4-2.7,1.4-5.9,2.9-8,.1-.9-1.2-1.3-2.8-1.9-4.3-2.7-7.2-8.5-11.5-14-10.4"/>
        <path class="cls-20" d="M2388.8,121.4c-6.1-1.3-12.3.8-17.3,5.8-5,5-2.2,2.6-3.3,4-1.6,2-3.1,2.7-5.2,2.8-4.1.2-8.1.2-12.1.3-8,.2-15.8.4-23.8.6-8,.2-15.3.3-22.9,1.4-7.6,1.1-14.4,3-21.2,6.8s-11.6,7.9-17.1,12.8c-5.5,4.8-11.2,10.3-17.1,14.9-5.9,4.6-11.9,8.2-18.5,10.7-6.6,2.6-13.6,5-19,11.4-4.4,5.2-8.7,15.1-15.4,14.4l.3,3.1c5.3-2.9,10.8-6,16.5-6.8s4.4-.9,5.6,1.6c1.2,2.5,1.2,4.4,1.7,6.5.7,3.4,1.8,9.3,5.1,8.9s6-1.9,4.4-4.7c-1.6-2.8-3.4,0-4.4.4-2.7,1.1-5.5,2.3-8.2,3.4-2.7,1.2-7.3,4.1-4.7,8.7,2.6,4.6,2.9,2.7,4.5,3.3s4.5,1.5,4.8,4.2c.2,2.7-2.5,4.9-3.9,6.1-2,1.6-4,3.6-5.5,6.1-3,4.7-4.6,11.3-4.1,17.4.5,6.1,4.2,11.1,8.7,13.8l-.5-1.4c.2,3.8.5,7.5.7,11.3.2,3.8.2,1.2.5,1.4,3.3,1.9,28.9,6.3,27.5-1.8-1.4-8.2-1.2-3.8-1.8-5.5-.5-1.7-.9-2.6-1.2-3.9s-.5-1.5-.6-2.1c-.2-.6-.2-1.1-.2-.5l-.9,1.5h0c-.4-.1-.8-.3-1.2-.4-.3-.3,0,.2.2.5.2.6.5,1.4.7,2,.6,1.9,1.2,3.9,1.8,5.8,2,7,3.2,14.5,3.6,21.9s0,10.6-1.2,15.8c-1.2,5.2-1.6,4.2-1.5,6,.2,3.3,3.7,1.3,4.9.9,1.2-.4,2.3-.9,3.4-1.1s.4,0,.4,0c0,.3-.9-2.7-.5-2.5,0,0,.2,0,0,0-.5.1-1.2.9-1.8,1.2-.8.5-1.6,1-2.5,1.4-1.8,1-3.6,1.8-5.5,2.6s-.6.2-.9.3-.3,0-.4,0c.4-1,1.3,2.6.8,2.5.2,0-.2,0,0,0,.2,0,.7-.6.9-.8,1.8-1.4,3.9-2.8,5.4-3.5,4.3-2.3,8.7-4.1,13.1-6,15.3-6.8,30.8-13.1,46.2-19.2,15.5-6.1,13.8-5.4,20.8-7.8,6.9-2.5,4.8-1.6,7.1-2.4,2.3-.8,2.5-.4,3.7-.8,1.2-.3,0,0-.2-.1-.4-.8-.4-2.8-.5-1.1-.2,1.7.8,1.7,1.5,1.5s1.9-1.5,2.6-2.1c1.7-1.6,3.5-3.1,5.2-4.7,1.7-1.6,3.5-3.2,5.3-4.8,1.8-1.6,1.3-1.2,2-1.7s1.1-.8.6-.5l-1.4-1.9c-.2,1.1-1.2,1.7-.9,3.1.3,1.4,1.1,1.5,1.9,1.3.8-.2,2-1.3,2.9-1.9,1.6-1.3,3.7-2.5,5.2-4.1,1.5-1.6,1.1-2.1,1.1-3.5s0-1.8,0-2.7c0-1.4.9-1.7,1.7-2.5s2-1.9,2.9-2.9.7-.5,1-.9-.2.2-.2-.3c1.6,5.8,1.2,11.9-.7,17.5-1.9,5.6-.7,2-1.2,3-.5,1-1.1,1.5-1.2,2s-.2,0,.2,0,.2.5.4.2,0-1.3,0-1.5c0-.8.2-1.5.3-2.4.3-2.4.8-4.7,1.3-7s.5-2.3,1.2-3,.5-.9.7,0c.2.9-.3,2.6-.6,3.3s-.7.9-.8,1.1c-.6,2.3.8,1.5,1.2,1.3s.8-1,.7-.9c.7-.6,1.4-1.3,2.2-1.7,2.7-1.4,5.6-1.7,8.4-2s6.3-.3,9.4-.3c7.4,0,14.8.8,22.1,2.1,7.3,1.4,5.7,1.2,8.6,1.1,2.9-.1,4.2-.5,5.6-2.6,2.4-3.9-3.4-6.7-4.4-2.7-.9,4,2.4,4.6,3.4,6.1s.9,1.9,1.4,2.9c.8,1.5,2,2.6,3.1,3.6,3.4,3.1,6.5,7.1,9.5,10.9,3,3.9,8.3,10.9,12.4,16.4,4.1,5.5,8.5,11.1,13,16.2s7.1,8,11.2,10.7c4.1,2.7,3.2,1.4,4.7,2.3,1.5.9,2.9,2.4,4,4.2,2.8,4.6,4.2,10.6,5.3,16.3,2.8,14.8,3.3,30.3,4.1,45.5.8,15.2.6,12.9,1.2,19.2s.2,2.7.8,4c2.1,4.8,6,8.8,9.6,11.5,3.6,2.7,10.3,5.6,15.5,2.6,7.4-4.5,10.4-17.2,11.9-27.2,1.5-10,2-20.6,2-31,0-15.3-.8-30.8-2-46-1.7-21.5-4.1-42.8-6.9-64.1v-.4c0-1.2-.3-1.3-.9-.2,0,.2-.2-.2,0,0s.7.1.9.2c.9.2,1.9.6,2.8,1.1,2.3,1,4.5,1.9,6.8,3.1,2.3,1.2,3.2,1.6,4.8,2.5s1.7,1.1,2.5.4.6-1.4.8-2.3.7-1.1,1.1-1.7l.5-.4c-.3-.1-.5-.3-.7-.6-.5-.5-.2-.3-.2-.2-.4-.3,0-.3,0,.1,0-.3,0,0,0,.5v1.2c0,2.6,0,5.2,0,7.7,0,9-.2,18-.5,27-.5,25-1.3,50.1-2.2,75.1-.9,25-1.2,37.8-2.2,56.6,0,1,0,1.9-.2,3s0,.6,0,1c0,.5-.2.1,0,.3s0,.1,0,.1c-.4-.3,2.1-.3,2.1-.3l-.2-.4c-.2-.8-.2-1.6-.3-2.4-.6-6-.5-13.4-.5-20,0-24.1.9-48.3,2-72.3,1.2-26,2.6-51.9,4.7-77.7,2.1-25.8,1.6-17.9,2.8-26.7,1.2-8.8.8-5.4,1.4-7.9.6-2.6.2-1.1.6-1.9s0-.2.2-.4c1.1-1.5,2.6-2.5,3.9-3.5,3-2.5,5.9-5,7.8-9.3s2.2-7.5,2.3-11.5c.2-8.5-2.3-17.3-6.6-23.3-4.3-6-12.3-10.9-19.2-13.2-8.7-2.8-17.6-4.5-26.4-6.2-8.8-1.7-4.3-.9-6.4-1.2-2.1-.3-4.7-.6-6.9-1.4s-3-1.1-3-2.6c0-1.5,2.7-2.7,3.5-3,2.1-1,4.3-1.7,6.5-2.4,2.2-.6,3.9-.8,5.8-1.8,1.9-1.1,4.1-4.1,2.7-7.3s-4.8-5.8-7.4-7.2c-2.6-1.4-6.4-2.7-9.8-3.1-5.2-.8-10.2-.3-15.4.1-5.2.4-9,1.5-13,0-4-1.5-2.8-1.2-2.8-2.6s2-2.1,2.8-2.6c2-1.1,4-3.4,3-6.7s-4.4-4.4-6.6-4.8c-4.3-.8-8.7-1.1-13-1-8.8,0-17.6,1.6-26.1,4.5-8.5,2.9-8.2,3.2-12.2,5.3-4,2-3.4,1.9-5.2,2.3-1.8.3-3.4-1.4-4.3-4-2.8-7.9-8.8-13.3-15.4-12.2-6.6,1.1-1.5,3.4,0,3.2,3.7-.5,7.3,1,10,4.3,2.7,3.3,2.4,3.8,3.3,6,.9,2.3,1.6,4.1,3.1,5.2,3.2,2.1,6.9-.5,10-2.1,4.3-2.1,8.7-4,13.2-5.5,8.8-2.8,17.9-4.1,26.9-3.6,9.1.4,4.2.2,6.3.5s4.5.3,6.5,1.7c3.7,2.6-1.6,4.3-3.1,5.7-1.5,1.4-2.1,4.4-.7,6.5,1.4,2.1,5.1,3.5,7.6,3.8,3.9.2,7.9-.5,11.8-.9,5.8-.4,11.7-.8,17.4,1,5.7,1.7,6.9,2.8,9.6,6.1,2.7,3.3,2.1,2.6.4,4-1.7,1.4-4.5,1.6-6.7,2.3s-3.9,1.3-5.9,2.1-3.2,1.4-4.3,3c-1.1,1.6-1,5,.6,6.8,2.9,3.1,7.4,2.9,10.8,3.5,3.4.6,9.4,1.8,14.2,2.9,14.1,3.1,34.7,5.2,40.6,26.8,2.3,8.7,2,19.4-3.7,25.5-2.6,2.8-6.1,4.3-8.3,7.5s-.6,1.2-.9,1.8c-1.9,5.5-2.3,12-3,17.9-2.7,23.5-4,47.3-5.3,70.9-1.4,26.6-2.6,53.3-3,80.1-.2,9.7-.3,19.2-.2,28.9.2,9.7.2,6.1.4,9.1s.2,3.9.9,5.2c1.4,2.6,2.3-.6,2.3-2.1,0-1.5.2-4.3.4-6.5.4-8.6.7-17.2,1.1-25.8.9-25.3,1.8-50.5,2.5-75.9.5-19.6,1.3-39.4,1.2-59,0-1.7,0-3.8-.2-5.5-.8-4.2-5.2.6-5.2,3.3,0,2.7.5-1.4.7-.3,0-.3-2-1.1-2.2-1.2-.5-.2-1-.5-1.5-.8-2-1.1-4.1-2-6.2-3-2.1-1-9.1-5.3-8.7.3.5,5.6,1.6,12.2,2.3,18.2.7,6,1.4,11.6,2,17.4,1.1,10.1,2.1,20.3,2.9,30.5,1.2,15.5,2,30.9,1.9,46.5-.2,15.6-.5,20.6-2.2,30.7-1.6,10.1-2.4,12.2-5.2,17.3-2.7,5-8.4,8.4-13.7,6.2-5.3-2.1-8.6-5.7-11.8-10.3-3.2-4.6-.6-.9-.9-1.4s-.2-.2-.5-1-.3-.6-.5-1.1,0,.2,0,0,0-.3,0-.5c-1.4-14.2-1.6-28.4-2.7-42.6-1-14.2-1.3-15.1-2.6-22.5-1.2-7.4-2.4-12.2-5.1-17.3-2.7-5-2.3-4-3.8-5.4-1.5-1.4-3-1.8-4.7-2.6-4.1-1.7-7.7-5.8-11-9.4-9.2-10.2-17.4-22-26-33.1-8.6-11.1-6.4-8.4-10.1-11.9-3.7-3.5-2-1.7-2.9-2.9s-.9-2-1.5-3-2-3.4-3.1-3.9-1-1.2-.6.4.2,0,.4,0c.4,0,.5.4.2-.2-.7-1.7.2-.3,0-.4s-.7.6-.8.6c-.9.6-2,.8-3,.8-3.2,0-6.5-.6-9.6-1.3-7.3-1.4-14.4-1.8-21.8-1.9-7.3-.1-12.4-.4-17.9,2.5-5.5,2.9-5.2,3.1-4.6,6,.5,2.9,3,.9,3.7-.5,1.2-2.1,2.2-7,.2-8.9-2-1.9-4.1,1.3-4.9,3.6-1.2,3.5-2,8-2.2,11.9-.2,3.9,0,4,1.3,4.4,2.7,1.1,4.8-6.5,5.4-9,.6-2.5,1.2-5.7,1.3-8.7,0-3-.2-6.7-1.2-9.2-.9-2.6-2-2.3-3.3-1.2-1.3,1.1-1.5,1.4-2.2,2.1-1.1,1.2-2.7,2-3.6,3.4-.9,1.4-.9,2.7-.9,4.1s.2,1.9-.2,2.7c-.4.8-1.6,1.4-2.3,1.9-1.4,1.1-2.8,2.4-4.3,3.3,0,0-.5.2-.5.3-.4.6.5,1.6.9,1.4s.7-1.4.8-1.7c.2-1.2-.5-2.3-1.4-1.9s-1.8,1.5-2.6,2.1c-1.7,1.6-3.5,3.2-5.2,4.7s-3.5,3.2-5.3,4.8c-1.8,1.6-1.3,1.2-2,1.7-.6.5-1.1.6-.6.5l1.5,1.5c-.2,1.8,0-.2,0-.6s-.3-.9-.6-1.1c-.5-.3-1-.3-1.5-.3-1.8.1-3.6.8-5.3,1.3-6.6,2-13.2,4.6-19.7,7.1-16.9,6.5-33.6,13.4-50.2,20.7-16.6,7.3-10.3,4.4-15.4,7-5.1,2.6-3.9,2.4-5.8,3.8-1.9,1.4-1.5,1-2,1.7-.8,1.3-.3,2.8.9,3s3.1-1,4.4-1.6c2-1,4.1-2,6.1-3.2,2-1.2,3.8-2.1,2.3-4.2s-4.8.4-6.2,1-1.3.4-2,.8-.2,0-.2,0c0-.3.6.9.7,1,.2.3,0,.6.2-.1s.3-1,.5-1.5c1.2-4.1,1.9-8.3,2.2-12.7.7-13-2-26.4-6.2-38-4.1-11.6-.9-2.6-2-2.3s-.8.9-.9,1.5.5,2,.7,2.8c.8,2.7,1.7,5.4,2.6,7.9.9,2.6.5,2.1.8,2.3,0,0,0-.8.2-.9-.3.1-.6.4-1,.5-1.2.4-2.6.5-3.8.6-3.6.3-7.2.1-10.7-.2-3.5-.3-6.1-.5-8.7-2l.5,1.4c-.2-3.8-.5-7.5-.7-11.3s-.2-1.2-.5-1.4c-2.3-1.4-4.7-2.9-6.2-5.9-1.5-3-1.6-5.8-1.5-8.8.3-7.1,3.4-12.9,7.7-16.5,4.3-3.6,7.1-5.8,5.6-11.2-1.5-5.4-2-3.5-3.5-4.4s-5.1-1.2-6-3.3c-.9-2.1,4.6-4.2,5.7-4.7,1.6-.8,3.3-1.4,4.9-2s1.7-.6,2.7-1.1,1.1-.3.9-.4l-.8-1.1c-.8-2.9.7-1.2,0-1.2s-.5.4-.7.5c-.5.3-1.1.6-1.6.8-.5.1-.8,0-1.2-.6s-.9-2.3-1.2-3.3c-.9-3.5-1.2-7.9-3.1-10.8-1.9-2.9-6.6-2.5-9.7-1.7-5.1,1.2-9.8,3.9-14.6,6.4-4.8,2.6-1,3,.3,3.1,5.5.6,9.4-5,13-9.9,3.5-4.8,4.4-6.1,7.1-8.4,2.7-2.3,5.9-3.9,9.1-5.3,6.1-2.6,12.3-4.6,18.1-8.4,6.1-4,11.7-8.9,17.3-14,5.6-5,11.1-10.1,16.9-14.3,6.3-4.6,13-7.7,20.1-9.4s15-2.3,22.6-2.5c7.6-.2,15.7-.4,23.6-.6,7.9-.2,9.1-.2,13.7-.4s7.9.8,10.9-2c3-2.8,2.4-3.1,3.7-4.6,1.3-1.5,3.1-3.1,4.8-4.2,3.5-2.1,7.5-2.9,11.3-2.1,3.8.8,2.1-2.8.6-3.1h0l-.3.3h0Z"/>
      </g>
      <g>
        <ellipse class="cls-13" cx="2428.9" cy="356" rx="22.6" ry="19.3"/>
        <ellipse class="cls-6" cx="2428.9" cy="357.1" rx="13.3" ry="12.9"/>
      </g>
      <g>
        <ellipse class="cls-13" cx="2348.9" cy="356" rx="19.1" ry="19.3"/>
        <ellipse class="cls-6" cx="2348.5" cy="356" rx="14.8" ry="12.9"/>
      </g>
      <path class="cls-22" d="M2383.4,398.2c1.4,7.8.8,16.3-1.8,23.6-2.6,7.3-2.5,6.7-1.6,10.3.9,3.6,3.2,5.3,5.6,3.9,2.4-1.4,3.5-6.3,5.5-9.4,2-3.1-.6-3.9-1.6-2.3-1,1.6-1.6,3.5-2.4,5.5-.8,1.9-1.7,3.8-3.3,3.6s-1.7-1.8-1.8-3.2c-.2-2.1.8-4.3,1.4-6.1,3-8.3,3.7-17.6,2.1-26.5-1.6-8.9-2.7-1.2-2.3.9h0l.2-.2h0Z"/>
      <path class="cls-22" d="M2382.7,400.4c-.6,5.3-1.2,10.5-1.8,15.8l-.9,7.8c-.2,2.3-.5,4.5-.6,6.8,0,4,1.2,7.6,4,9.1,2.8,1.5,5.4.8,7.9-.2,2.5-1,1-1.2.8-1.9-.7-2.6-1.4-5-2.1-7.6-.7-2.6-.8-1.4-1.4-1.1-1.7.6-2.6,2.8-2.3,5.2.2,2.4,2.5,1.2,2.3-.9s.3-1.1.7-1.2l-1.4-1.1c.7,2.6,1.4,5,2.1,7.6l.8-1.9c-2,.8-4.5,1.4-6.6.2-2-1.2-2.5-5.5-2.1-8.7.9-9,2-17.9,3-26.8.2-2-2-2.9-2.3-.9h0v-.2h0Z"/>
      <path class="cls-22" d="M2390.4,439.6c1.5,0,1.5-3.2,0-3.2s-1.5,3.2,0,3.2h0Z"/>
      <path class="cls-22" d="M2390.4,439.6c1.5,0,1.5-3.2,0-3.2s-1.5,3.2,0,3.2h0Z"/>
      <path class="cls-23" d="M2459.1,449.5s-9.6,48.9-74.2,44.4c-64.6-4.6-69.6-54.5-69.6-54.5-1.6,43.4,29.3,80.7,68.9,83.5,39.7,2.8,73.2-30.1,74.8-73.4h0Z"/>
      <polygon class="cls-2" points="2396.9 881.9 2433.9 881.9 2451.6 1017.8 2396.9 1029.5 2396.9 881.9"/>
      <polygon class="cls-2" points="2317.3 881.9 2355.6 881.9 2355.6 1020.3 2300.1 1015.2 2317.3 881.9"/>
      <path class="cls-12" d="M2184.4,767h33.8v38.9c-.1,10-9.7,17.6-20.2,15.8l-13.6-2.3v-52.4Z"/>
      <path class="cls-16" d="M2576.8,757h0c9.1-5.3,21.1-1.4,24.9,8l4.1,10c2.5,6.1.9,13-4,17.5l-1.7,1.6c-9.8,9.1-26.3,4.2-28.9-8.5l-2.4-11.6c-1.4-6.7,1.8-13.5,8-17Z"/>
      <line class="cls-17" x1="2300.1" y1="726.8" x2="2512.4" y2="729.8"/>
      <line class="cls-17" x1="2386.1" y1="726.5" x2="2386.1" y2="882.7"/>
      <rect class="cls-2" x="2276.9" y="1013.7" width="80.6" height="41.2" rx="9.1" ry="9.1"/>
      <rect class="cls-2" x="2397" y="1013.7" width="80.6" height="41.2" rx="9.1" ry="9.1"/>
    </g>
    <g class="cls-7">
      <g class="cls-7">
        <text/>
      </g>
      <g class="cls-7">
        <text/>
      </g>
      <g class="cls-7">
        <text/>
      </g>
      <g class="cls-7">
        <text/>
      </g>
      <g class="cls-7">
        <text/>
      </g>
      <g class="cls-7">
        <text/>
      </g>
      <g class="cls-7">
        <text/>
      </g>
    </g>
    <text/>
    <text/>
  </g>
  <path class="cls-15" d="M3255.8,703.5h-261.9c-267.5-3.1-382,48.6-416.2,17.5-21.4-19.5-15.8-75.7,138-251.5v-15.4c0-128.8,129.6-234.1,288.1-234.1h252.2c158.4,0,288.1,105.4,288.1,234.1v15.4c0,128.8-129.6,234.1-288.1,234.1h-.2Z"/>
  <g>
    <path class="cls-15" d="M5233.4,580.5l-248.4-3.6c-253.9-6.2-363.3,35-395.4,8.7-20-16.5-14.1-63,134.1-206.6l.2-12.7c1.6-106.7,125.9-192.3,276.3-190.1l239.5,3.5c150.4,2.2,272.2,91.3,270.6,198.1l-.2,12.7c-1.6,106.7-125.9,192.3-276.3,190.1h-.4Z"/>
    <g class="cls-7">
      <g class="cls-7">
        <text class="cls-1" transform="translate(4788.6 318.5) scale(1.1 1)"><tspan x="0" y="0">Ooops! YOU LOSE</tspan><tspan x="0" y="115.2">BETTER LUCK NEXT TIME</tspan></text>
      </g>
      <g class="cls-7">
        <text/>
      </g>
      <g class="cls-7">
        <text/>
      </g>
      <g class="cls-7">
        <text/>
      </g>
      <g class="cls-7">
        <text/>
      </g>
      <g class="cls-7">
        <text/>
      </g>
      <g class="cls-7">
        <text/>
      </g>
    </g>
  </g>
  <g>
    <path class="cls-15" d="M5246,1332.3h-262.6c-268.2-3.4-383,54.3-417.3,19.5-21.4-21.8-15.8-84.6,138.4-280.8v-17.2c0-143.8,130-261.4,288.8-261.4h252.9c158.8,0,288.8,117.7,288.8,261.4v17.2c0,143.8-130,261.4-288.8,261.4h-.2Z"/>
    <g class="cls-7">
      <g class="cls-7">
        <text class="cls-4" transform="translate(4827.3 952.9) scale(1.4 1)"><tspan x="0" y="0">HI</tspan></text>
      </g>
      <g class="cls-7">
        <text class="cls-4" transform="translate(4827.3 991.3) scale(1.4 1)"><tspan x="0" y="0">MY NAME IS JOHN. I AM A</tspan></text>
      </g>
      <g class="cls-7">
        <text class="cls-4" transform="translate(4827.3 1029.7) scale(1.4 1)"><tspan x="0" y="0">RUGBY PLAYER. CAN YOU</tspan></text>
      </g>
      <g class="cls-7">
        <text class="cls-4" transform="translate(4827.3 1068.2) scale(1.4 1)"><tspan x="0" y="0">HELP ME IN COLLECTING</tspan></text>
      </g>
      <g class="cls-7">
        <text class="cls-4" transform="translate(4827.3 1106.6) scale(1.4 1)"><tspan x="0" y="0">THE BLUE RUGBY BALLS.</tspan></text>
      </g>
      <g class="cls-7">
        <text class="cls-4" transform="translate(4827.3 1145) scale(1.4 1)"><tspan x="0" y="0">REMEMBER IF WE CATCH</tspan></text>
      </g>
      <g class="cls-7">
        <text class="cls-4" transform="translate(4827.3 1183.5) scale(1.4 1)"><tspan x="0" y="0">THE RED BALLS,WE LOSE!</tspan></text>
      </g>
    </g>
  </g>
  <text class="cls-5" transform="translate(4414.6 310.5)"><tspan x="0" y="0">z</tspan></text>
  <path class="cls-15" d="M1378.1,630.5h-255.3c-260.7-2.8-372.3,45.1-405.6,16.2-20.8-18.1-15.4-70.2,134.5-233.3v-14.2c0-119.4,126.3-217.2,280.7-217.2h245.8c154.4,0,280.7,97.8,280.7,217.2v14.2c0,119.4-126.3,217.2-280.7,217.2h-.2Z"/>
  <g>
    <g>
      <rect class="cls-8" x="-5272" y="1093" width="1923" height="1084.5"/>
      <path class="cls-11" d="M-5120.3,2178h-73.1c3.5-327,3.8-653.9,1-980.9-.3-34.5-.6-69.1-1-103.6h73.1v1084.5Z"/>
      <rect class="cls-11" x="-4913.9" y="1093.5" width="62.1" height="1086.5"/>
      <rect class="cls-11" x="-4582.4" y="1092.5" width="72.1" height="1086.5"/>
      <rect class="cls-11" x="-4311" y="1092.5" width="73.1" height="1085.5"/>
      <rect class="cls-11" x="-3955.4" y="1093.5" width="66.1" height="1083.5"/>
      <rect class="cls-11" x="-3675" y="1095.5" width="66.1" height="1083.5"/>
      <rect class="cls-11" x="-3495.7" y="1095.5" width="66.1" height="1083.5"/>
      <path class="cls-14" d="M-5018.9,1573.6"/>
      <path class="cls-14" d="M-5018.9,1438.3"/>
      <rect class="cls-9" x="-3622.9" y="1465.7" width="250.4" height="360.2"/>
      <rect class="cls-9" x="-3559.3" y="1570.7" width="225.3" height="148.2" transform="translate(-1801.9 5091.5) rotate(90)"/>
      <g>
        <rect class="cls-9" x="-5253.5" y="1463.7" width="250.4" height="360.2"/>
        <rect class="cls-9" x="-5282.5" y="1565.2" width="214.3" height="156.2" transform="translate(-3532.1 6818.6) rotate(90)"/>
        <path class="cls-9" d="M-4948,1634.7c0,30.2-23.3,55.6-55.1,63.1v-126.2c31.7,7.5,55.1,32.9,55.1,63.1Z"/>
      </g>
      <path class="cls-9" d="M-3622.9,1575.9v136.7c-34.1-8.3-59.1-35.8-59.1-68.4s25-60.1,59.1-68.4Z"/>
      <ellipse class="cls-9" cx="-4357.1" cy="1627.7" rx="146.2" ry="146.9"/>
      <line class="cls-9" x1="-4359.1" y1="1111.6" x2="-4355.1" y2="2143.8"/>
      <rect class="cls-9" x="-5253.5" y="1111.6" width="1880.9" height="1044.2"/>
    </g>
    <path class="cls-18" d="M-4847.6,1637.5h178.7c19.1,0,34.5,13.9,34.5,31.1v295.1c0,17.2-15.4,31.1-34.5,31.1h-178.7c-19.1,0-34.5-13.9-34.5-31.1v-295.1c0-17.2,15.4-31.1,34.5-31.1Z"/>
    <path class="cls-3" d="M-4656.7,1649.7s-15.3,105.9-111.4,98.7c-71.6-5.4-85.2-77.5-91.6-108.3-.3-1.3-15.5,8.6-15.4,9.9,4.3,63.6,51.9,116.8,105.9,120.9,59,4.5,125-50.1,128.2-121.6l-16.9-10.6,1.1,10.9Z"/>
    <polygon class="cls-3" points="-4944.8 1897.3 -4876.1 1713.7 -4856.2 1726.5 -4924.8 1910.1 -4944.8 1897.3"/>
    <path class="cls-3" d="M-4639.6,1721.5l72,147.6c2.1,4.4,1.2,10.1-2.1,12.8l-5.6,4.6c-3.3,2.7-7.8,1.4-9.9-3l-72-147.6c-2.1-4.4-1.2-10.1,2.1-12.8l5.6-4.6c3.3-2.7,7.8-1.4,9.9,3h0Z"/>
    <path class="cls-10" d="M-4757.7,1373.6h0c60.9,0,110.2,44.5,110.2,99.4v103.3c0,54.9-49.3,99.4-110.2,99.4h0c-60.9,0-110.2-44.5-110.2-99.4v-103.3c0-54.9,49.3-99.4,110.2-99.4Z"/>
    <g>
      <path class="cls-21" d="M-4755,1302.8c-6.2-1.4-12.8,1.4-17.5,7.2-1,1.2-1.8,2.5-3,3.3-1.3.9-2.8,1-4.3,1-12.3.3-24.6.7-36.9,1-12.1.3-24.5.7-35.9,6.2-16.6,7.9-30,26-46.7,33.6-7.8,3.6-16.4,4.9-22.9,12-4.9,5.4-9.1,14.3-15.3,13.4,6.1-3.2,12.3-6.4,18.8-6.4s4.1,9.4,7.5,15.1c3.4,5.7,7-2.4,3.9-1.4-3,1.1-7.5,2.8-11.2,4.5s-3.9,6,1,7.5c5,1.5,0,0,.1,0,6.5,1.9,7.2,7.5,1.3,11.7-5.8,4.3-3.5,3-5,5-4.2,5.9-5.5,16.7-1.2,22.4,1.4,1.8,3.3,3,5.1,4.1l.7,10.2c4.7,2.8,25.7,3.6,24.4,0-7.4-21.3-1.7-7.2,0,0,7.5,31.4-3.8,38.7,1.5,36.8,20.4-7.4-19.2,12,0,0,5.5-3.5,90.3-37.5,88-32.9-2.3,4.6,15-13,14.8-12.6-2.7,4.7,1.3,1,6.7-2.9,1.6-1.2-.1-5.5,1.5-6.8,6.2-5,6.1-8.4,7.4,1,1.5,11.1-9.2,29.1-3.7,5.8,1.4-5.8,5-5.8,3.7,0-1,4.6-4.7,3.7,0,0,4.7-3.7,18-2.9,23.7-2.9,12.6,0,23.4,4.7,27.4,1.9,4.6-3.2-4.2-4,0,0,4.2,4,1.6,4.1,5.9,7.7,9.8,8.2,35.3,47.3,46.6,50.4,15.6,4.3,13.5,58.9,16.3,80.4.9,7.2,56.1,70.8,26.5-139-.2-1.6,13,4.6,14.2,5.3,5.2,2.8.3,0,5.4-3.2,5.1-3.2-4,158.6-4.7,157.2-4.1-9.5,4-184.6,10.4-191.3,2.8-3,6.4-4.6,8.9-7.9,6.6-8.5,4.3-24.8-2.4-33.2s-16-11-24.9-13.1c-9.4-2.1-18.8-4-28.3-5.6-9.5-1.6-7.5-5.5-2.6-7.8,5-2.3,6.5-2.5,9.9-3.3,3.4-.8,6.2-3.5,4.6-5.8-5.9-8.4-16.8-9.1-25.9-8.4l-11.2.9c-7.5.6-11.8-5-5.9-7.8,5.8-2.8.1,0,.3,0,4.8-2.2,3-6.8-3-7.7-16.6-2.5-33.7.4-49.3,8.5-2.5,1.3-5.5,2.6-7.5,0-.8-1.1-1.3-2.5-1.8-3.9-2.5-6.5-8.1-10.4-13.3-9.4"/>
      <path class="cls-20" d="M-4754.8,1301.3c-5.8-1.2-11.7.7-16.4,5.2-4.7,4.6-2.1,2.3-3.1,3.6-1.5,1.8-3,2.4-5,2.5-3.8.2-7.7.2-11.5.3-7.5.2-15,.4-22.6.6-7.5.2-14.5.3-21.7,1.3-7.2,1-13.7,2.7-20.1,6.1-6.4,3.4-11,7.2-16.2,11.5-5.2,4.4-10.6,9.3-16.2,13.5-5.5,4.2-11.3,7.4-17.5,9.7-6.2,2.3-12.9,4.6-18,10.3-4.2,4.6-8.3,13.7-14.6,13l.3,2.8c5-2.6,10.2-5.4,15.7-6.1s4.1-.8,5.3,1.5c1.2,2.2,1.2,4,1.6,5.9.7,3.1,1.7,8.4,4.8,8,3.1-.4,5.7-1.7,4.2-4.3-1.5-2.5-3.2,0-4.2.4-2.6,1-5.2,2-7.8,3.1-2.6,1.1-6.9,3.7-4.4,7.8,2.4,4.2,2.7,2.4,4.3,3,1.6.6,4.3,1.4,4.5,3.8.2,2.4-2.4,4.5-3.7,5.5-1.9,1.5-3.8,3.3-5.3,5.5-2.8,4.3-4.4,10.2-3.8,15.7s4,10,8.3,12.5l-.5-1.3c.2,3.4.4,6.8.7,10.2.2,3.4.1,1.1.5,1.3,3.1,1.7,27.4,5.7,26-1.6-1.3-7.4-1.2-3.4-1.7-4.9s-.8-2.3-1.2-3.5-.4-1.4-.6-1.9c-.1-.6-.1-1-.1-.5l-.8,1.4h0c-.4,0-.7-.3-1.1-.4-.3-.3,0,.2.2.5.2.6.4,1.3.7,1.8.6,1.7,1.2,3.5,1.7,5.2,1.8,6.3,3,13.1,3.4,19.8.4,6.7,0,9.6-1.2,14.2-1.2,4.6-1.5,3.8-1.4,5.4.1,3,3.5,1.2,4.7.8s2.1-.8,3.3-1,.4,0,.4,0c0,.3-.8-2.4-.5-2.2,0,0,.2,0,0,0-.5,0-1.2.8-1.7,1.1-.7.5-1.6.9-2.4,1.3-1.7.9-3.4,1.6-5.2,2.3-1.8.7-.6.2-.9.3s-.3,0-.4,0c.4-.9,1.3,2.3.7,2.2.1,0-.1,0,0,0,.2,0,.7-.6.9-.7,1.7-1.3,3.7-2.5,5.1-3.2,4.1-2,8.3-3.7,12.4-5.4,14.5-6.1,29.1-11.8,43.8-17.3,14.6-5.5,13.1-4.8,19.7-7.1,6.6-2.2,4.5-1.5,6.7-2.1,2.2-.7,2.4-.4,3.5-.7,1.2-.3,0,0-.1,0-.4-.7-.4-2.5-.5-1s.7,1.5,1.4,1.4,1.8-1.4,2.4-1.9c1.6-1.5,3.3-2.8,5-4.3,1.6-1.5,3.3-2.9,5-4.4,1.7-1.5,1.3-1.1,1.8-1.5s1-.7.6-.5l-1.3-1.7c-.1,1-1.1,1.5-.8,2.8.3,1.3,1,1.4,1.8,1.2.7-.2,1.9-1.2,2.7-1.7,1.6-1.2,3.5-2.2,4.9-3.7s1-1.9,1-3.2,0-1.6,0-2.4c0-1.3.9-1.5,1.6-2.2.7-.7,1.8-1.7,2.7-2.6s.7-.5,1-.8-.1.2-.2-.3c1.5,5.2,1.1,10.7-.7,15.8s-.7,1.8-1.1,2.7-1,1.4-1.1,1.8-.2,0,.2,0,.2.5.4.2,0-1.2,0-1.4c0-.7.1-1.4.3-2.1.3-2.1.7-4.3,1.3-6.3q.5-2,1.1-2.7c.6-.7.5-.8.7,0s-.3,2.3-.6,3-.7.8-.7,1c-.6,2,.7,1.4,1.1,1.2s.7-.9.7-.8c.7-.6,1.3-1.2,2.1-1.5,2.5-1.3,5.3-1.5,7.9-1.8,2.6-.3,6-.3,8.9-.3,7,0,14,.7,20.9,1.9,7,1.3,5.4,1.1,8.1,1,2.7,0,4-.5,5.3-2.3,2.3-3.5-3.3-6-4.1-2.4-.9,3.6,2.3,4.2,3.3,5.5,1,1.4.9,1.7,1.3,2.6.7,1.4,1.8,2.3,3,3.3,3.3,2.8,6.1,6.4,9,9.9,2.9,3.5,7.8,9.9,11.8,14.8,3.9,4.9,8.1,10,12.4,14.6,4.3,4.6,6.7,7.3,10.6,9.7,3.9,2.4,3,1.3,4.4,2,1.4.8,2.7,2.1,3.8,3.8,2.7,4.2,4,9.6,5,14.7,2.7,13.4,3.1,27.3,3.8,41.1.7,13.8.6,11.6,1.2,17.3.6,5.7.2,2.4.7,3.6,2,4.4,5.7,7.9,9.1,10.4,3.4,2.4,9.8,5,14.6,2.3,7-4.1,9.8-15.5,11.2-24.5s1.8-18.6,1.9-28c0-13.8-.7-27.8-1.8-41.5-1.6-19.4-3.9-38.6-6.6-57.8v-.4c0-1.1-.3-1.2-.9-.2,0,.2-.1-.2,0,0s.7,0,.8.2c.9.2,1.8.6,2.7,1,2.1.9,4.3,1.7,6.4,2.8,2.1,1.1,3,1.5,4.5,2.2,1.5.8,1.6,1,2.4.4s.6-1.3.7-2,.7-1,1-1.5l.4-.4c-.3,0-.5-.3-.7-.6-.4-.5-.2-.3-.1-.2-.4-.3,0-.3,0,0,0-.3,0,0,0,.5v1.1c0,2.3,0,4.6,0,7,0,8.1-.2,16.3-.4,24.4-.5,22.6-1.3,45.2-2.1,67.8-.8,22.6-1.2,34.1-2.1,51,0,.9,0,1.7-.1,2.7s0,.6,0,.9c0,.5-.1,0,0,.3s0,0,0,0c-.4-.3,2-.3,2-.3v-.4c-.3-.7-.4-1.5-.4-2.1-.6-5.4-.5-12.1-.5-18,0-21.8.9-43.6,1.8-65.3,1.1-23.4,2.4-46.9,4.4-70.1s1.5-16.2,2.7-24.1c1.2-7.9.7-4.8,1.3-7.2.6-2.3.2-1,.6-1.7.4-.8,0-.2.2-.4,1-1.4,2.4-2.2,3.7-3.2,2.9-2.2,5.6-4.6,7.4-8.4,1.8-3.9,2.1-6.8,2.1-10.4.1-7.7-2.2-15.6-6.3-21-4.1-5.4-11.6-9.9-18.2-11.9-8.2-2.5-16.6-4.1-25-5.6-8.4-1.5-4.1-.8-6.1-1.1-2-.3-4.4-.6-6.6-1.3-2.1-.7-2.8-1-2.9-2.3s2.6-2.4,3.3-2.7c2-.9,4.1-1.5,6.1-2.1s3.7-.7,5.5-1.6,3.9-3.7,2.5-6.6c-1.4-2.9-4.6-5.2-7-6.5s-6.1-2.4-9.2-2.8c-4.9-.7-9.7-.3-14.6,0-4.9.4-8.5,1.4-12.3,0-3.8-1.4-2.7-1.1-2.7-2.3s1.9-1.9,2.7-2.3c1.8-1,3.8-3.1,2.9-6-.9-2.9-4.1-4-6.3-4.4-4.1-.7-8.2-1-12.4-.9-8.4,0-16.7,1.5-24.8,4.1-8.1,2.6-7.8,2.9-11.5,4.7s-3.2,1.7-4.9,2c-1.7.3-3.2-1.3-4.1-3.6-2.7-7.2-8.4-12-14.6-11s-1.4,3.1,0,2.9c3.5-.5,6.9.9,9.5,3.9,2.6,3,2.3,3.4,3.1,5.4.8,2,1.5,3.7,3,4.6,3,1.9,6.6-.5,9.5-1.9,4.1-1.9,8.3-3.6,12.5-4.9,8.4-2.5,16.9-3.7,25.5-3.3,8.6.4,4,.2,6,.5s4.3.3,6.1,1.5c3.5,2.3-1.6,3.9-3,5.1-1.4,1.3-2,4-.7,5.9,1.3,1.9,4.8,3.2,7.2,3.4,3.7.2,7.5-.5,11.2-.8,5.5-.4,11.1-.7,16.5.9,5.4,1.5,6.5,2.5,9.1,5.5s2,2.3.4,3.6c-1.6,1.3-4.3,1.5-6.4,2s-3.7,1.2-5.5,1.9c-1.8.8-3,1.3-4.1,2.7-1,1.5-1,4.6.6,6.1,2.7,2.8,7,2.6,10.3,3.2,3.3.6,8.9,1.6,13.5,2.6,13.4,2.8,32.9,4.6,38.5,24.2,2.2,7.8,1.9,17.5-3.5,23-2.4,2.5-5.8,3.9-7.8,6.8-2.1,2.9-.6,1.1-.8,1.6-1.8,4.9-2.2,10.8-2.8,16.2-2.5,21.2-3.8,42.7-5,64-1.3,24-2.4,48.1-2.9,72.2-.1,8.7-.3,17.3-.1,26,.1,8.7.1,5.5.4,8.2.2,2.7.1,3.5.8,4.6,1.3,2.3,2.1-.6,2.2-1.9,0-1.4.2-3.9.4-5.9.4-7.7.7-15.5,1-23.2.9-22.9,1.7-45.6,2.4-68.5.5-17.7,1.3-35.5,1.1-53.3,0-1.5,0-3.4-.2-4.9-.7-3.8-4.9.6-5,3,0,2.4.4-1.3.7-.3,0-.3-1.9-1-2.1-1.1-.4-.2-1-.5-1.4-.7-1.9-1-3.9-1.8-5.9-2.7-2-.9-8.7-4.7-8.2.3.4,5,1.6,11,2.2,16.5.7,5.4,1.3,10.5,1.9,15.7,1,9.1,2,18.3,2.7,27.5,1.1,13.9,1.9,27.9,1.8,41.9-.1,14-.5,18.6-2.1,27.7-1.6,9.1-2.3,11-4.9,15.6-2.6,4.6-8,7.6-13,5.6-5-1.9-8.1-5.1-11.2-9.3-3-4.2-.6-.8-.8-1.3s-.1-.2-.5-.9-.3-.6-.4-1,0,.2,0,0,0-.3,0-.5c-1.3-12.8-1.6-25.7-2.5-38.4-1-12.8-1.3-13.7-2.4-20.3s-2.3-11-4.8-15.6c-2.5-4.6-2.2-3.6-3.6-4.8-1.4-1.3-2.8-1.6-4.4-2.3-3.8-1.5-7.3-5.2-10.4-8.5-8.7-9.2-16.5-19.9-24.6-29.8-8.1-10-6.1-7.6-9.5-10.7-3.5-3.2-1.9-1.5-2.7-2.6s-.9-1.8-1.4-2.7-1.9-3.1-3-3.5-1-1.1-.6.4c.4,1.5.1,0,.4,0,.4,0,.4.4.2-.2-.7-1.5.2-.3,0-.4s-.7.6-.7.6c-.9.6-1.8.7-2.8.7-3,0-6.1-.6-9.1-1.2-6.9-1.3-13.7-1.6-20.6-1.7-7,0-11.8-.4-16.9,2.2s-4.9,2.8-4.4,5.4c.5,2.6,2.8.8,3.5-.5,1.2-1.9,2.1-6.3.2-8-1.8-1.7-3.9,1.2-4.7,3.3-1.2,3.2-1.8,7.3-2.1,10.7-.2,3.5,0,3.6,1.3,4,2.6,1,4.5-5.9,5.1-8.1s1.2-5.1,1.3-7.8-.2-6-1.1-8.3c-.9-2.3-1.8-2-3.1-1.1-1.3,1-1.4,1.3-2.1,1.9-1,1.1-2.5,1.8-3.4,3.1s-.8,2.4-.8,3.7.2,1.7-.1,2.4-1.6,1.3-2.2,1.7c-1.3,1-2.7,2.1-4.1,3,0,0-.4.2-.4.3-.4.6.4,1.5.9,1.3s.7-1.3.7-1.5c.1-1.1-.5-2-1.3-1.7s-1.7,1.4-2.4,1.9c-1.6,1.5-3.3,2.9-5,4.3s-3.3,2.9-5,4.4c-1.7,1.5-1.3,1.1-1.8,1.5s-1,.6-.6.5l1.4,1.4c-.1,1.6,0-.2,0-.6s-.3-.8-.6-1c-.4-.3-1-.3-1.4-.3-1.7,0-3.4.7-5,1.2-6.3,1.8-12.5,4.2-18.7,6.4-16,5.9-31.8,12.1-47.6,18.7-15.8,6.6-9.8,4-14.6,6.3-4.8,2.3-3.7,2.1-5.5,3.4-1.8,1.3-1.4.9-1.8,1.5-.7,1.2-.3,2.5.8,2.7s3-.9,4.1-1.5c1.9-.9,3.8-1.8,5.8-2.9,1.9-1.1,3.6-1.9,2.2-3.8-1.4-1.8-4.6.4-5.8.9-1.3.5-1.3.4-1.8.7s-.1,0-.1,0c0-.3.6.8.7.9.2.3,0,.6.1,0s.3-.9.4-1.4c1.1-3.7,1.8-7.5,2.1-11.4.7-11.7-1.9-23.8-5.8-34.3-3.9-10.5-.8-2.3-1.8-2-1,.3-.7.8-.8,1.4s.4,1.8.7,2.5c.7,2.4,1.6,4.8,2.4,7.2s.4,1.9.7,2c0,0,0-.7.1-.8-.3,0-.6.4-1,.5-1.2.4-2.4.5-3.6.6-3.4.3-6.8,0-10.1-.2-3.3-.3-5.8-.5-8.3-1.8l.5,1.3c-.2-3.4-.4-6.8-.7-10.2s-.1-1.1-.5-1.3c-2.1-1.3-4.4-2.6-5.8-5.3-1.4-2.7-1.6-5.2-1.4-7.9.3-6.4,3.3-11.6,7.3-14.9,4.1-3.3,6.7-5.2,5.3-10.1-1.4-4.8-1.9-3.2-3.3-4s-4.8-1.1-5.7-3,4.4-3.8,5.4-4.3c1.6-.7,3.1-1.3,4.7-1.8,1.6-.6,1.6-.6,2.5-1s1-.3.9-.4l-.7-1c-.7-2.6.7-1.1,0-1.1s-.5.4-.7.5c-.4.3-1,.6-1.5.7-.4,0-.7,0-1.1-.6s-.8-2-1.1-3c-.9-3.2-1.2-7.2-3-9.8-1.8-2.6-6.2-2.2-9.2-1.5-4.8,1.1-9.3,3.5-13.8,5.8s-1,2.7.3,2.8c5.2.6,8.9-4.6,12.3-8.9,3.3-4.4,4.1-5.5,6.7-7.6,2.6-2,5.6-3.5,8.6-4.7,5.8-2.3,11.6-4.2,17.2-7.6,5.8-3.6,11.1-8,16.4-12.6s10.5-9.1,16-12.9c6-4.2,12.4-7,19.1-8.5,6.7-1.5,14.2-2,21.4-2.2s14.9-.4,22.3-.6,8.7-.2,13-.4c4.4-.2,7.5.7,10.4-1.8,2.9-2.5,2.3-2.8,3.5-4.2,1.3-1.4,3-2.8,4.6-3.8,3.3-1.9,7.1-2.6,10.7-1.9s2-2.5.6-2.8h0l-.3.3h0Z"/>
    </g>
    <g>
      <ellipse class="cls-13" cx="-4716.7" cy="1513" rx="21.4" ry="17.4"/>
      <ellipse class="cls-6" cx="-4716.7" cy="1514" rx="12.6" ry="11.6"/>
    </g>
    <g>
      <ellipse class="cls-13" cx="-4792.5" cy="1513" rx="18.1" ry="17.4"/>
      <ellipse class="cls-6" cx="-4792.9" cy="1513" rx="14.1" ry="11.6"/>
    </g>
    <path class="cls-22" d="M-4759.9,1551.1c1.3,7.1.7,14.7-1.7,21.3-2.4,6.6-2.4,6-1.5,9.3.9,3.3,3,4.7,5.3,3.5,2.3-1.3,3.3-5.7,5.2-8.5,1.8-2.8-.6-3.5-1.6-2-1,1.5-1.6,3.2-2.3,4.9s-1.6,3.4-3.1,3.3c-1.5,0-1.6-1.6-1.7-2.9-.1-1.9.7-3.9,1.3-5.5,2.8-7.5,3.5-15.9,2-23.9-1.6-8-2.5-1.1-2.1.8h0v-.2q.1,0,.1,0Z"/>
    <path class="cls-22" d="M-4760.5,1553.1c-.6,4.7-1.1,9.5-1.7,14.2l-.8,7.1c-.2,2-.5,4.1-.6,6.1,0,3.6,1.1,6.9,3.8,8.2,2.7,1.4,5.1.7,7.5-.2,2.4-.9,1-1.1.7-1.7-.7-2.3-1.3-4.6-2-6.9-.7-2.3-.7-1.3-1.3-1-1.6.6-2.4,2.5-2.2,4.6s2.4,1.1,2.1-.8c-.2-1.8.3-1,.7-1.1l-1.3-1c.7,2.3,1.3,4.6,2,6.9l.7-1.7c-1.9.7-4.3,1.3-6.2.2-1.9-1.1-2.4-4.9-2-7.8.9-8.1,1.9-16.2,2.9-24.2.2-1.8-1.9-2.6-2.1-.8h0v-.2h0Z"/>
    <path class="cls-22" d="M-4753.3,1588.5c1.4,0,1.4-2.9,0-2.9s-1.4,2.9,0,2.9h0Z"/>
    <path class="cls-22" d="M-4753.3,1588.5c1.4,0,1.4-2.9,0-2.9s-1.4,2.9,0,2.9h0Z"/>
    <path class="cls-23" d="M-4688.1,1597.4s-9.1,44.1-70.3,40.1c-61.2-4.2-65.9-49.2-65.9-49.2-1.6,39.1,27.7,72.8,65.3,75.3,37.6,2.5,69.4-27.1,70.8-66.2h0Z"/>
    <polygon class="cls-2" points="-4747.1 1987.5 -4712.1 1987.5 -4695.3 2110.2 -4747.1 2120.7 -4747.1 1987.5"/>
    <polygon class="cls-2" points="-4822.5 1987.5 -4786.3 1987.5 -4786.3 2112.5 -4838.8 2107.8 -4822.5 1987.5"/>
    <path class="cls-12" d="M-4948.4,1883.9h32v35.1c-.1,9.1-9.2,15.9-19.1,14.3l-12.9-2.1v-47.3Z"/>
    <path class="cls-16" d="M-4576.6,1874.8h0c8.7-4.7,20-1.3,23.6,7.2l3.9,9c2.4,5.5.9,11.7-3.8,15.8l-1.6,1.4c-9.3,8.2-24.9,3.8-27.4-7.7l-2.3-10.5c-1.3-6,1.7-12.2,7.5-15.4Z"/>
    <line class="cls-17" x1="-4838.8" y1="1847.6" x2="-4637.7" y2="1850.3"/>
    <line class="cls-17" x1="-4757.3" y1="1847.3" x2="-4757.3" y2="1988.3"/>
    <rect class="cls-2" x="-4860.8" y="2106.5" width="76.3" height="37.2" rx="-2354.1" ry="-2354.1"/>
    <rect class="cls-2" x="-4747" y="2106.5" width="76.3" height="37.2" rx="-2297.2" ry="-2297.2"/>
    <path class="cls-15" d="M-3839.1,1793.3h-277.3c-283.2-3.3-404.4,52.5-440.6,18.9-22.6-21.1-16.7-81.8,146.1-271.7v-16.6c0-139.1,137.2-252.9,304.9-252.9h267c167.7,0,304.9,113.8,304.9,252.9v16.6c0,139.1-137.2,252.9-304.9,252.9h-.2Z"/>
  </g>
</svg>