<?xml version="1.0" encoding="UTF-8"?>
<svg id="Layer_1" data-name="Layer 1" xmlns="http://www.w3.org/2000/svg" version="1.1" viewBox="0 0 282.5 475.5">
  <defs>
    <style>
      .cls-1 {
        fill: #656f6e;
      }

      .cls-1, .cls-2, .cls-3, .cls-4, .cls-5, .cls-6, .cls-7, .cls-8, .cls-9, .cls-10, .cls-11, .cls-12, .cls-13, .cls-14, .cls-15, .cls-16, .cls-17, .cls-18, .cls-19 {
        stroke-width: 0px;
      }

      .cls-20 {
        fill: #ff001c;
      }

      .cls-20, .cls-21, .cls-22, .cls-23, .cls-24, .cls-25 {
        stroke-miterlimit: 10;
      }

      .cls-20, .cls-21, .cls-22, .cls-24, .cls-25 {
        stroke: #000;
      }

      .cls-2 {
        fill: #e4ceb2;
      }

      .cls-3 {
        fill: #d00029;
      }

      .cls-4 {
        fill: #b90024;
      }

      .cls-5, .cls-22 {
        fill: #d0002f;
      }

      .cls-6 {
        fill: #d00017;
      }

      .cls-21, .cls-16 {
        fill: #fff;
      }

      .cls-7 {
        fill: #998c7b;
      }

      .cls-23 {
        fill: #1d5779;
        stroke: #fff;
      }

      .cls-8 {
        fill: #2c7ca0;
      }

      .cls-9 {
        fill: #357098;
      }

      .cls-10 {
        fill: #d00040;
      }

      .cls-11 {
        fill: #5f8bae;
      }

      .cls-12 {
        fill: #d00024;
      }

      .cls-24 {
        fill: #7daebf;
      }

      .cls-13, .cls-25 {
        fill: #fafafa;
      }

      .cls-14 {
        fill: #a20012;
      }

      .cls-15 {
        fill: #d0003a;
      }

      .cls-17 {
        fill: #96cbd9;
      }

      .cls-18 {
        fill: #bfaa92;
      }

      .cls-19 {
        fill: #349fc0;
      }
    </style>
  </defs>
  <path class="cls-3" d="M151.9,1.4c11.8,1.2,37.4,16.9,46.9,24.4,14.5,11.5,26.8,25.8,37.9,40.5-2.8,1.9-23.8,2.7-24,5.1,3.7,3.8,16.9,32.7,18.5,33.7,1.3.7,24.8-1.2,28.9,1,28.7,63.9,28.9,148.5,5.9,214.1-3.3,9.4-7.6,18.3-11.7,27.4-5,1.4-34.5,7.4-36.2,8.2-.8.4-2,1.5-2.5,2.1l-.4-.3c.9-.9,9.7-19.2,11-22,22.4-49.5,31.7-109.5,23.9-163.4-1.7-11.9-5.1-28-8.8-39.3-1.9-5.8-9.4-26.1-13.1-27.8,1.1-.9,0-1.2,0-1.4-1.9-8.6-11.6-22.7-16.6-30.2-1.8-2.7-3.7-6.8-8-12.5-6.4-8.6-22.8-27.9-30.6-36.7-6.8-7.7-13.6-15.9-21.8-22.1.1,0,.4-.5.7-.7h0Z"/>
  <path class="cls-5" d="M195.4,395.5c1.3-2.1,3-4.2,4.3-6.3,13.2-1.1,25.8-6.7,38.8-9.6-.4.7-3,3.9-5.2,7.4-12.9,19.8-24.7,34.8-42.5,50.6-6.4,5.6-14.6,12.2-21.7,16.8-9.2,6-33.3,17.8-43.6,20.3-13.5,3.4,2.4-4,14.4-13.9,23.1-19.1,39.8-40.1,55.6-65.3h-.1Z"/>
  <path class="cls-4" d="M168.9,397.4c3.9-.8,23.9-3.9,25.7-5.5,1.7-1.5,12.8-23.8,15.2-28.3-.1.4.3,1.5-2.6,7.4-3.8,7.8-8.5,15.5-13.1,22.9-18.1,29.1-39.6,53.8-67.2,74.4-3,2.3-9.9,8-12.2,6.9.5-.4,0-.7,0-.7.3-.6,1.1-1.5,1.3-2.2,2,.7,1.7-1.2,2-1.5,19-22.8,32.1-33.9,44.6-65.7-14.3,0-28.6,1.8-42.9,0-.9.6-.3,1.1-.4,2.7l-.9.6c0-5.7-3.2-2.8-3.9-2.8s-1-.7-2.5-.9l.3-.4c20.3-.5,36.4-2.8,56.3-6.7l.3-.2h0Z"/>
  <path class="cls-21" d="M236.6,66.3c9.6,12.8,16.9,25.1,23.5,39.8-4.1-2.2-27.7-.3-28.9-1-1.7-.9-14.8-29.9-18.5-33.7.1-2.3,21.2-3.2,24-5.1,0,0-.1,0-.1,0Z"/>
  <path class="cls-13" d="M48.2,373.4c5.4,10.1,10.6,20,16.2,29.9,9.6,16.9,19.5,33.7,31.1,49.2,3.4,4.5,14.8,19.7,17.9,22-.4.5-.6,0-.7,0-23-19.2-37.9-45.7-51.9-71.8-4.4-8.2-9.6-16.1-12.9-24.9-1.2-3.1-1.6-3.2.3-4.4h0Z"/>
  <g>
    <path class="cls-20" d="M43,124c2.8,0-3.9,11.5-6.5,19.3-13.7,39.8-18.9,91.2-15,133.1-5.9-.5-11.2,3.5-18,3.3-.5-10.4-1.8-21-1.8-31.4s2.4-18.4,0-23.2c.3-3.4.5-6.6.9-10,4-.4,3.4-16.1,4.2-22,.2-1.4,4.6-8.4,1.2-12.6,1.7-8,11.1-44.6,14.8-48.8,2.3-2.6,16.4-6.7,20.3-7.7h0Z"/>
    <path class="cls-20" d="M1.6,225.1c2.5,4.8,0,16.4,0,23.2,0,10.4,1.3,21,1.8,31.4,6.8.1,12.1-3.8,18-3.3,2.7,28.7,11.1,67.2,24.2,93l-21.4.7C4.6,324.6-2.3,274.4,1.5,225.1h.1Z"/>
    <path class="cls-20" d="M48.7,369.8s.8,0,2.9.5c-1.6,0-4.6.4-6.4.4-6.9,0-14-.8-20.9-.6l21.4-.7c-13.1-25.8-21.5-64.3-24.2-93-3.9-41.9,1.3-93.3,15-133.1,2.7-7.8,9.3-19.2,6.5-19.3.5,0,2.9-2.1,3.7-1.1-30,65.4-32.2,164.5-6.4,231.2,1.7,4.4,4.5,13.6,8.5,15.6h0Z"/>
    <path class="cls-20" d="M7.9,180.5c3.4,4.3-1,11.2-1.2,12.6-.9,5.9-.3,21.6-4.2,22,1.4-12.6,2.8-22.2,5.5-34.7h0Z"/>
  </g>
  <path class="cls-19" d="M114.8,474.4s.5.3,0,.7h-.7c.2-.3.3-.7.3-1,0,0,.4.3.4.3Z"/>
  <path class="cls-24" d="M250,172.2c7.8,53.8-1.5,113.9-23.9,163.4-1.3,2.8-10.1,21.2-11,22-2.2,2.2-3,.5-3.2.5,30.7-50.7,43.5-127,34.9-185.4,2.3.5,2.6,3.8,3.2-.5h0Z"/>
  <g>
    <path class="cls-13" d="M67,85.1s.5-.6,1.4-.8c0,0,.7.2,2.1,0,.7-.2,1.4-.7,2.1-.8,13.1-3.1,23.5-3.7,35.4-5.9,1.6-.3,4.3.5,5.8-1.2,1.3-1.6,7.9-24.5,14.5-38.7,2.4-5.2,8.5-17.6,11.1-22.2,2.5-4.3,9-14.7,8.2-11.4-12.6,23.1-23.3,47.7-30.6,72.9.4.3,4.6-.8,5.8-.9,6.1-.2,12.2-.8,18.4-1,5.8-.2,11.5-.3,17.3-.6,4.8-.3,8.4.5,13.4-.8,1.3,1.2,7.6.4,10.6,0l25.8-.4.4.3c-2.6.3-5.3,1-7.9,1.3,2,3.5,7.7,27.8,8.7,28.9,1.4,1.5,15.7,0,18.6-.2,0,.2,1.2.5,0,1.4l-.3.4c-1-1.1-19.3,0-22.7,0h-14.2c-20.4,0-40.8,0-61.2,1-2.6,0-5.1.2-7.8.4-.3,0-4.6-1.1-5.5,0-.8,1.1-2.1,25.2-2.8,26.4,0,0-.8-.2-1.2.6-2.4-.1-4.7-.3-7.1-.3-.8-3.9,2.2-21,3.3-26.2l-.9-.5c-19.8,3.2-39.2,8.3-58.1,15.1,4.5-12.8,9.9-25.5,17.2-36.9h.2,0Z"/>
    <path class="cls-16" d="M208.7,73.6c.1,0,.2.8,2.8-.2,5,7.6,14.6,21.6,16.6,30.2-2.9.3-17.1,1.7-18.6.2-1-1.1-6.7-25.4-8.7-28.9,2.6-.3,5.3-1,7.9-1.3h0Z"/>
  </g>
  <path class="cls-24" d="M250,172.2c-.6,4.3-.8,1-3.2.5-3.7-25.3-11-43.5-19-67.3l.3-.4c3.7,1.7,11.2,21.9,13.1,27.8,3.7,11.3,7,27.5,8.8,39.3h0Z"/>
  <path class="cls-24" d="M173,24.2c7.8,8.8,24.1,28.1,30.6,36.7,4.2,5.7,6.2,9.8,8,12.5-2.6,1-2.7,0-2.8.2l-.4-.3c-13.6-15.6-24.7-33.2-38.2-48.8l2.8-.2h0Z"/>
  <path class="cls-25" d="M151.2,2.1c8.2,6.2,15,14.4,21.8,22.1l-2.8.2c-3.9-4.5-7.9-9.2-12.1-13.5-7.5-7.7-11.4-7.8-6.9-8.8Z"/>
  <path class="cls-15" d="M205.2,105.3c2.5,1.5,10.9,1.5,14.7.4,17.5,51.4,25.1,98.1,16.4,152.4-4,25.1-15.3,63.8-28.1,85.5-2.5,4.1-8.9,10.7-10.4,16.2-2.8.2-4.9.6-3.3,1.4-.9.2-1.2.7-1.4.8-9.6,1.5-19.2,3-28.8,4.5,18.5-22.8,30.6-49.8,39.2-77.6,17.9-58.2,17.9-129.3-12.5-183.4h14.2v-.2h0Z"/>
  <path class="cls-12" d="M145.3,330c.1,0,1.1,1.2,2.4,1.5,14.5,2.6,45.9-32.8,55.8-42.6-8.5,27.9-20.7,54.9-39.2,77.6-13.4,2-26.6,4-40.1,5.1-.4-6-.4-37.7-.8-39.6.8-2.2,17.6-2.4,21.8-1.9h.1Z"/>
  <g>
    <path class="cls-10" d="M112.6,404.1l-.3.4c-.3.4-1,0-1.2.6-1.6,3.8,4.9,57,3.4,69,0,.3,0,.8-.3,1.1-.3-.2-.5-.5-.7-.7-3.1-2.3-14.5-17.5-17.9-22,4-1.4,11.1,17.8,14.5,14.6,3.5-19.5-2.5-38.8-1.9-58.3-.2-5.4-6.3-2.5-12.6-3.2-1.9-.2-4.8-1.3-5.2-1.3,7.4-.5,14.9,0,22.3-.2h0Z"/>
    <path class="cls-10" d="M90.3,404.3c.5,0,3.4,1.1,5.2,1.3,6.3.7,12.3-2.2,12.6,3.2-.6,19.6,5.4,38.8,1.9,58.3-3.3,3.3-10.5-16-14.5-14.6-11.6-15.6-21.5-32.4-31.1-49.2l.3-.4c8.5.5,17.1.6,25.6,1.4h0Z"/>
  </g>
  <path class="cls-2" d="M117.2,372.7c-.6,0-4.3.2-4.4,0l-2.6-42.5c.8,0,5.5-.5,5.8-.2l1.2,42.6h0Z"/>
  <path class="cls-3" d="M118.2,470.7c1.5-13,2.4-26.5,2.5-39.6,0-8-1.2-22.1-1.1-23.5,0-1.6-.6-2.1.4-2.7,14.3,1.9,28.5.1,42.9,0-12.5,31.8-25.6,42.9-44.6,65.7h0Z"/>
  <path class="cls-23" d="M119.6,407.6c0,1.4,1.3,15.5,1.1,23.5-.2,13.2-1.1,26.6-2.5,39.6-.3.3,0,2.2-2,1.5,3.7-13.4-2.2-51-1.3-66.9.7,0,3.9-2.9,3.9,2.8l.9-.6h0Z"/>
  <path class="cls-13" d="M112.3,404.5c1.5.2,2.4.9,2.5.9-.9,15.9,5,53.5,1.3,66.9-.2.7-1,1.6-1.3,2.2l-.4-.3c1.6-12.1-4.9-65.2-3.4-69,.2-.6.9-.2,1.2-.6h.1Z"/>
  <g>
    <path class="cls-22" d="M135.8,5.1c-5.9,5.6-12.3,10.6-18,16.4-9.3,9.5-29.6,32.1-38,42.5-3.7,4.7-11.9,18.8-15.6,21.2-2.3,1.5-15.8,3.3-19.7,6.2l-.7-.7C63.5,56.4,98.2,19.7,135.8,5.1Z"/>
    <g>
      <path class="cls-22" d="M135.8,5.1c5-2,10.6-4.3,16.1-3.7-.3.3-.6.7-.7.7-4.5,1.1-.6,1.1,6.9,8.8-3.1.2-7.8-9.7-8.8-4.5-1.4,7.9,6,56.5,9.1,67.8-5.8.4-11.5.4-17.3.6-1.4-3.1,5,1.1,11.8-1.2-4.6-20.5-6.2-41.1-6-62-9.5,20.9-20.4,41.4-24.2,64.2-1.2,0-5.4,1.2-5.8.9,7.2-25.2,17.9-49.8,30.6-72.9.8-3.3-5.8,7.1-8.2,11.4-2.6,4.6-8.7,17-11.1,22.2-6.5,14.2-13.1,37.1-14.5,38.7-1.4,1.7-4.2.9-5.8,1.2,8.3-26,18.3-51.9,34.6-74-27,23.2-51,49.8-70,79.9-.7.2-1.4.7-2.1.8,7.1-15.2,19.2-27.4,29.8-40.1l-.4-1.4c-11.6,12.8-23.7,26.2-31.5,41.6-.9.2-1.3.8-1.4.8-.6,0-1.2.3-1.7.5,0,0-.9-.2-1.1-.3,3.8-2.4,11.9-16.6,15.6-21.2,8.3-10.4,28.6-33,38-42.5,5.7-5.8,12.2-10.8,18-16.4h.1Z"/>
      <path class="cls-22" d="M108,77.5c-11.9,2.2-22.4,2.8-35.4,5.9C91.6,53.3,115.7,26.7,142.6,3.5c-16.3,22.2-26.3,48-34.6,74Z"/>
      <path class="cls-22" d="M70.5,84.2c-1.5.4-2,0-2.1,0,7.8-15.4,19.9-28.8,31.5-41.6l.4,1.4c-10.6,12.7-22.7,24.9-29.8,40.1h0Z"/>
    </g>
  </g>
  <path class="cls-6" d="M227.9,105.4c8,23.8,15.3,42,19,67.3,8.6,58.4-4.2,134.7-34.9,185.4-5.8,1.1-11.7,1.8-17.5,3.1-1.6-.9.5-1.2,3.3-1.4,1.5-5.5,8-12,10.4-16.2,12.8-21.7,24.1-60.4,28.1-85.5,8.7-54.3,1.1-101.1-16.4-152.4-3.8,1.1-12.2,1.1-14.7-.4,3.4,0,21.6-.9,22.7,0h0Z"/>
  <g>
    <path class="cls-16" d="M193.1,362c.2,0,.5-.6,1.4-.8,5.8-1.3,11.7-2,17.5-3.1.2,0,1,1.6,3.2-.5l.4.3c-1,1.2-13.5,25.1-14.1,27-.3.6-.7,1.3-1,1.8,0,.1-.6,1.9-.9,2.5-1.2,2.1-2.9,4.2-4.3,6.3l-1.2-1.7c4.6-7.4,9.2-15.1,13.1-22.9,2.9-5.9,2.4-7,2.6-7.4.1-.3,2,.2,1.8-3.1-1.6.4-1.7,3-1.8,3.1-2.4,4.5-13.5,26.8-15.2,28.3-1.8,1.6-21.8,4.7-25.7,5.5,2.3-10.2,6.7-20,6.9-30.7-32,5-4.7,0,7.3-2.5,2.3-.5,1.7.7,2.2.6.3,0,.7-1,1-1.1.4,0,1.9.6,6.8-1.6h0Z"/>
    <path class="cls-17" d="M64.8,402.9l-.3.4c-5.6-9.9-10.8-19.8-16.2-29.9-.3-.5-.2-1-.8-1.4,0,0,.4-.7,1.6.8,1.3,1.6,11.4,24.5,15.7,30.1Z"/>
    <g>
      <path class="cls-13" d="M51.6,370.3c6.4,1.6,35.2,2.1,44,1.8,2.9.1,4.3.5,7.4,0,0,0,.9,1.1,2,0l-3-40.2c0-2.2,5-1.8,8.2-1.7l2.6,42.5c.2.1,3.8,0,4.4,0,1.3-.1,2.1-.7,7-1.1,13.5-1.1,26.7-3.1,40.1-5.1,9.6-1.5,19.2-2.9,28.8-4.5-4.9,2.2-6.5,1.5-6.8,1.6-.3,0-.7,1.1-1,1.1-.5.1.1-1.1-2.2-.6-12,2.5-39.3,7.5-7.3,2.5-.2,10.7-4.7,20.4-6.9,30.7-19.9,4-35.9,6.2-56.3,6.7-7.4.2-14.9-.3-22.3.2-8.5-.8-17.1-.9-25.6-1.4-4.3-5.6-14.4-28.5-15.7-30.1-1.3-1.5-1.6-.7-1.6-.8-.7-.5-1.4-.9-2.2-1.3,1.8,0,4.7-.4,6.4-.4h0Z"/>
      <path class="cls-8" d="M95.6,372.1c-8.8.3-37.6-.1-44-1.8,4.4,0,9.6-.4,14-.3,3.1,0,6.3,1.2,8.2,1.3,7.3.2,14.5.4,21.8.7h0Z"/>
    </g>
    <g>
      <path class="cls-16" d="M254.3,347.6s.8.4.6.9c-.8,1.6-2.4,4-3.4,6-3.5,7.3-9.1,18.6-13.1,25.2-12.9,2.9-25.5,8.5-38.8,9.6.4-.6.9-2.4.9-2.5,1.7-1.5.9-1.7,1-1.8,2.6-4.5,13.9-23.8,14.6-26.1.1-.4-.3-.6-.6-.9.5-.6,1.8-1.7,2.5-2.1,1.7-.8,31.2-6.8,36.2-8.2h.1Z"/>
      <path class="cls-9" d="M201.5,384.9c.6-1.9,13.1-25.8,14.1-27,.3.2.7.4.6.9-.8,2.4-12,21.7-14.6,26.1h-.1Z"/>
      <path class="cls-9" d="M201.5,384.9s.7.3-1,1.8c.3-.5.6-1.2,1-1.8Z"/>
    </g>
    <path class="cls-11" d="M209.8,363.5c0-.2.2-2.7,1.8-3.1.2,3.3-1.7,2.8-1.8,3.1Z"/>
  </g>
  <g>
    <path class="cls-14" d="M51,404c.6,0,1.5.6,2.2.6,3.4,7.5,4.7,7.4,11.9,9.2,7.8,14.5,18.7,32.5,29.3,44.9,3.7,4.3,8.8,7.3,11.2,12.6-22.8-12.3-49.9-43.5-63.1-66.4,0-1.4,7.6-1,8.6-1h0Z"/>
    <path class="cls-14" d="M60.9,402.8c14,26.1,28.9,52.5,51.9,71.8-2.5-.3-5.1-2-7.3-3.1-2.3-5.4-7.5-8.3-11.2-12.6-10.5-12.4-21.5-30.4-29.3-44.9-.8-1.4-4.2-9.9-4.6-10.2-.8-.5-6.6,1-7.2.9-.6,0-1.6-.6-2.2-.6l9.8-1.3h.1Z"/>
    <path class="cls-14" d="M65,413.9c-7.2-1.8-8.5-1.7-11.9-9.2.6,0,6.4-1.4,7.2-.9.5.3,3.9,8.8,4.6,10.2h0Z"/>
  </g>
  <g>
    <path class="cls-22" d="M66.9,88.6c-7.3,11.4-12.8,24.1-17.2,36.9,18.9-6.8,38.3-11.9,58.1-15.1l-4,26.3c-14.6,4.2-28.4-4.9-25.9,17.4,1.8,1.7,20.9-.6,24.7-.7-1.6,2.6-.6,19.8-1.3,20.6s-26-1-28.5,2.7c-6,18.4,10.2,11.6,28.3,12.2-1.1,3.4.7,20.2-1.6,21.7-1.4.9-25.1-2.1-27.1,2.6-5.5,18.1,11.4,11.5,28.4,12.9-1.7,5.5.2,18.7-.3,19.5-.8,1.3-23.9-.2-27.2,1.2-13.1,23.3,24.4,11.5,27.1,15.1.6.8.8,19.2,0,19.8-1.1.9-25-2.1-27.2,1.9-3.9,18.6,9.1,11.9,26.6,13.4l.9,21.9c-16.8,1.1-33.4-5.2-29.1,11.9,2,6.1,27,1.7,28.9,3.7,1,1,1.2,24.5,1.6,28.2.4,4.4,2.5,12.6.9,12.9-3.1.6-4.5.2-7.4,0-7.3-.3-14.5-.5-21.8-.7-1.9,0-5.1-1.2-8.2-1.3-4.4-.1-9.6.4-14,.3-2.1-.5-2.7-.5-2.9-.5-2.4-13.7-8.7-27-12.4-40.6-21.4-79.2-9.3-171.4,28.9-243.7.6,0,1.1-.3,1.7-.5h0Z"/>
    <path class="cls-22" d="M190.9,108.9c30.4,54.1,30.4,125.2,12.5,183.4-10,9.8-41.4,45.3-55.8,42.6-1.3-.2-2.2-1.4-2.4-1.5,1.7-.1,3-.8,3.5-.9,5.7-.9,16-1.6,13-10.5-2.3-6.8-10.7-3-15.9-2.8-2,0-3.9-.1-6,0-.7,0-1.4,0-2.1.1l-11.5-.2-.5-21.6c10.6.6,44.2,3.6,40.4-12.5-3.3-3.3-14.8-1.6-22.9-1.7-4.5,0-9.4.4-13.8-.3-2-.3-3.9-.2-4.1-.3-.7-.7.4-17.2-.9-19.6.3-.2,0-.9,0-.9,1-.5,18.6-.4,23-.9,8.6-1.2,15.2-2,20-9.6-1.5-9-11.3-5.2-24.5-4.8h-7.4c-3,0-4.9.9-8.1.1-1-.3-2-.5-3.1-.7.8-2.5-1.1-18.8-.4-19.5,1.2-1.1,26.4-.4,32.4-4,4.5-2.7,12.7-11.1,3.5-13.3-1.7-.4-33.9,2.2-35.7,1-1.9-1.3.4-16.5-1-20.3,9.5-1.4,19-.7,28.6-2,5-.7,13.7,1,11.9-12.2-.9-2.5-15.3-1.5-22.6-1.4h-.7c-5.7-1-11.3,0-17,.3-.8-.7,0-20.2.2-21.3.2-.7,0-1.6,0-1.6,1-.7,17.8.2,24-.6,9.1-1.2,19.7-1.7,18-13.8-2-3-8.6-.9-13-.9-8.4.1-16.7.8-25.1,1.1l2.3-28.1c20.4-.9,40.8-.8,61.2-1h0v.2h-.1Z"/>
  </g>
  <g>
    <path class="cls-5" d="M141.1,74.9c-6.1.2-12.2.8-18.4,1,3.8-22.9,14.7-43.4,24.2-64.2-.2,20.9,1.4,41.5,6,62-6.8,2.3-13.2-1.9-11.8,1.2Z"/>
    <path class="cls-5" d="M158.2,19.1c5.1,17.8,13.3,34.4,18,52.3.4,2.5-2.2,1.7-4.3,2.2-5,1.3-8.6.5-13.4.8-3.2-11.3-10.5-59.9-9.1-67.8,3.6,3.7,7.8,7.4,8.9,12.6h0Z"/>
    <path class="cls-5" d="M158.1,10.9c4.2,4.3,8.2,8.9,12.1,13.5,13.5,15.6,24.6,33.2,38.2,48.8l-25.8.4c4.6-.4,8.9-1.9,13.6-.9,1.1-.7,1.1-9.1.5-10.6-2-4.6-32.6-40.8-36.4-43.3,0,0-1,.4-1.9.3-1.1-5.2-5.2-8.9-8.9-12.6.9-5.3,5.6,4.7,8.8,4.5h-.2Z"/>
    <path class="cls-5" d="M182.5,73.6c-3,.3-9.4,1.1-10.6,0,2.1-.5,4.7.3,4.3-2.2-4.7-17.9-12.9-34.5-18-52.3.9.2,1.9-.3,1.9-.3,3.8,2.5,34.4,38.6,36.4,43.3.7,1.6.7,10-.5,10.6-4.7-1-9,.5-13.6.9,0,0,.1,0,.1,0Z"/>
  </g>
  <path class="cls-5" d="M129.8,106.4l-2.3,28.1c-2.6,0-5.2.3-7.8.4-.3-.2-.6-.6-.7-.7l3.1-27.4c2.6-.2,5.1-.3,7.8-.4h-.1,0Z"/>
  <g>
    <path class="cls-2" d="M122,106.8l-3.1,27.4c-1.8-.6-4.4-.2-6.4-.3.4-.8,1.2-.5,1.2-.6.6-1.2,2-25.3,2.8-26.4.8-1.2,5.2,0,5.5,0h0Z"/>
    <path class="cls-7" d="M112.6,133.9c2,.1,4.6-.2,6.4.3.2,0,.4.4.7.7-5.9.3-10.8-.4-13.8-.3-1-.6-.4-1-.4-1,2.4,0,4.7.2,7.1.3Z"/>
  </g>
  <path class="cls-13" d="M101.3,279.4c4.6,0,9.2.3,13.8.3s1.9-.1,2.8-.2c3.7,0,7.6.9,11.3,0,4.5.7,9.3.2,13.8.3,1.5.6,1.6,11,1.2,11.4-8.3.5-64.2,1.2-67.3,0-4.2-1.7-3.4-8.1-2.1-11.6,8.8-.3,17.6-.3,26.4-.2h0Z"/>
  <path class="cls-16" d="M123.4,150.3c-.2,1-1,20.6-.2,21.3-2.4.1-4.7.3-7.1.4l.5-23c.4,0,5.4-1.6,6.8,1.4h0Z"/>
  <g>
    <path class="cls-16" d="M105.9,134.6c3-.1,7.9.5,13.8.3,2.6-.1,5.2-.4,7.8-.4,1.9,1.2,13.9-.4,14.3,0s-.9,8,.8,10.8c-.3.6.2,1.1-.8,1.3-3,.7-53.3.8-61.6.6-2.5-1.6-1-9.1,1.2-10.7,1.1-.9,21.3-1.8,24.5-1.9h0Z"/>
    <path class="cls-16" d="M152.6,133.4l-.6,1.5c-9.2-1.3-1.3,3.3-4.3,11.6-3.9.3-3.3,1.6-5-1.1-1.7-2.7-.4-10.4-.8-10.8s-12.4,1.2-14.3,0c8.4-.3,16.7-.9,25.1-1.1h0Z"/>
    <path class="cls-16" d="M152,134.9c3.2.4,1.9,6.2,2.5,10-.5.8-5.7,1.5-6.8,1.6,3-8.3-4.9-12.9,4.3-11.6Z"/>
  </g>
  <g>
    <path class="cls-16" d="M107.9,106.9l.9.5c-1.1,5.2-4.1,22.3-3.3,26.2,0,0-.6.4.4,1-3.3.1-23.4,1.1-24.5,1.9-2.1,1.6-3.7,9.1-1.2,10.7,8.3.1,58.6,0,61.6-.6,1-.2.5-.7.8-1.3,1.7,2.7,1.2,1.5,5,1.1,1.1,0,6.3-.8,6.8-1.6-.6-3.8.7-9.5-2.5-10l.6-1.5c4.4,0,11-2.1,13,.9,1.7,12-8.9,12.6-18,13.8-6.3.8-23,0-24,.6v1.6c-1.4-2.9-6.4-1.4-6.8-1.4-1.7,0-2.8-.3-4.6,0-5.1.5-7.3,0-7.6.3-1.1.9-2.3,19-1.4,21.9-.2.2-.4.5-.7.7-3.6,0-25.5,0-26.7.6-3.1,1.4-3.6,9.5-.4,11.4,1.2.7,24,.4,27.5.4.5.4,0,.5,0,.7-1.3,3.2-1.9,21.6,0,22.7.3.2.3.5,0,.7-3.5,0-25.9-.3-27.1.3-3,1.6-3.2,9-1.1,11.4,9.8.7,19.8.9,29.6,1v.7c-3.7-.8-3,17.7-1.9,21.7-.2.1-.4.5-.7.7-3.5,0-25.8-.2-27.1.3-3,1.1-2.3,8.8-.8,11,1.1,1,25.3,1,28.9,1,.3.2.3.4,0,.7-2.5,2.3,0,17.4-.5,21.6-.2.1-.4.5-.7.7-8.8,0-17.6,0-26.4.2-1.3,3.5-2.1,9.9,2.1,11.6,3.1,1.3,59,.6,67.3,0,.4-.4.3-10.9-1.2-11.4,8.2.1,19.7-1.6,22.9,1.7,3.9,16.1-29.7,13.2-40.4,12.5l.5,21.6,11.5.2c-7.4.3-14.8.7-22.3.9-.3-.4,0-.8,0-1.4-.4-7.4-.7-14.7-.7-22.1-2.3-.6-4.6-.2-6.9-.1-1.3,0-3.5-.7-5.9-.2-1.1.9-.3,21.3.4,22.8,0,.3,1,.5.4,1-4,0-28.2-.8-29.5.8-1.2,2.4-1.2,9.1,1,10.6,2,1.4,42.4,1.2,47.7,1,.4.6,1.5,2.6,1.6,2.7.4,1.9.4,33.6.8,39.6-4.9.4-5.7,1-7,1.1l-1.2-42.6c-.4-.3-5,.2-5.8.2-3.2,0-8.1-.5-8.2,1.7l3,40.2c-1.1,1.1-1.9,0-2,0,1.6-.3-.5-8.5-.9-12.9-.4-3.8-.6-27.2-1.6-28.2-1.9-2-26.9,2.4-28.9-3.7-4.3-17.1,12.3-10.8,29.1-11.9l-.9-21.9c-17.5-1.5-30.5,5.3-26.6-13.4,2.2-4,26.1-1,27.2-1.9.8-.6.5-19,0-19.8-2.6-3.6-40.1,8.2-27.1-15.1,3.3-1.4,26.4.1,27.2-1.2.5-.8-1.3-14,.3-19.5-17-1.4-33.9,5.2-28.4-12.9,2.1-4.7,25.7-1.7,27.1-2.6,2.3-1.4.5-18.2,1.6-21.7-18.1-.6-34.3,6.2-28.3-12.2,2.5-3.7,27.6-1.6,28.5-2.7s-.3-18,1.3-20.6c-3.8,0-22.9,2.4-24.7.7-2.4-22.3,11.3-13.2,25.9-17.4l4-26.3h0v.2h0Z"/>
    <path class="cls-16" d="M145.2,281.3c2.8-2.5,5.5,13.2.6,10.9l-.6-10.9Z"/>
  </g>
  <g>
    <path class="cls-13" d="M112,148.8l-2,21.7c-1.4-.3-6-.6-7.1.4-.9-2.9.4-21,1.4-21.9.3-.3,2.5.2,7.6-.3h0Z"/>
    <path class="cls-2" d="M116.6,148.9l-.5,23c-.7,0-1.4.1-2.1.1-1.2-.7-2.6-1.3-4-1.5l2-21.7c1.8-.2,2.9,0,4.6,0h0Z"/>
    <path class="cls-18" d="M103,170.9c1.1-1,5.6-.7,7.1-.4,1.4.3,2.8.8,4,1.5-6.7.1-11.1-.4-11.7-.4.2-.2.4-.5.7-.7h0Z"/>
  </g>
  <g>
    <path class="cls-13" d="M107.8,293.2c2.8,5.6,1.7,15.4,2.3,22.2-2.5-.3-5.3,0-7.8.4-.7-1.6-1.5-21.9-.4-22.8,2.4-.5,4.6.2,5.9.2h0Z"/>
    <path class="cls-2" d="M115.4,315.4c-4.2,2.8-5,0-5.3,0-.6-6.8.5-16.6-2.3-22.2,2.3,0,4.6-.5,6.9.1,0,7.4.3,14.7.7,22.1Z"/>
    <path class="cls-7" d="M110.1,315.3c.3,0,1.1,2.9,5.3,0,0,.6-.2,1,0,1.4-4.3.1-8.5,0-12.7,0,.5-.6-.3-.8-.4-1,2.5-.3,5.3-.7,7.8-.4Z"/>
  </g>
  <g>
    <path class="cls-13" d="M102.7,184.7c2.1,0,5.2.7,6.1.7,1.1,1.6,2,20.1,1.4,21-.7.9-6.2.3-7.6,1-1.7-1-1.1-19.5,0-22.7h0Z"/>
    <path class="cls-2" d="M114.1,184.8c1.5.9,1.4,0,1.7,1.9.2,1.1-.8,17-.4,21.4h-12.7c.3-.2.3-.5,0-.7,1.3-.7,6.9,0,7.6-1,.6-.9-.2-19.4-1.4-21,.3,0,4.7-.5,5.3-.7h0Z"/>
    <path class="cls-7" d="M116.1,184c-.5.7-1.4.7-2.1.8-.6.1-5,.7-5.3.7-.9,0-3.9-.8-6.1-.7,0-.2.4-.4,0-.7h13.5Z"/>
  </g>
  <g>
    <path class="cls-13" d="M102.6,257c1.7-.1,3.5.4,5,.4,3,3.8.9,14.1,2.1,21-1.9.5-6.3-.6-7.6.3.5-4.2-1.9-19.4.5-21.6h0Z"/>
    <path class="cls-2" d="M113.5,256.7l1.6,22.9c-4.7,0-9.2-.3-13.8-.3.2-.2.4-.6.7-.7,1.3-.8,5.7.3,7.6-.3-1.2-6.9,1-17.1-2.1-21,1.6,0,4.5-.2,6-.7h0Z"/>
    <path class="cls-7" d="M113.8,256.3l-.3.4c-1.5.5-4.4.7-6,.7s-3.3-.5-5-.4c.3-.3.3-.5,0-.7,1.2,0,3.1-.8,5.1-.8,6.2,0,5.9.9,6.2.9h0Z"/>
  </g>
  <g>
    <path class="cls-16" d="M101.3,316.1h12.1c7.1-.1,14.1-.4,21.3-.6h2l.5,8.7c-5.9,0-11.8.7-17.7.9-5.1.1-43.6.2-45.5-.7-2.1-1.1-2-5.8-1-7.6,1.3-1.1,24.3-.5,28.1-.6h.2Z"/>
    <g>
      <path class="cls-16" d="M136.8,315.4h5.7c6,2.5,1.8,5.6,2.8,9.5-.5,0-1.7.6-3.3.6-4-.4-20-.1-20.8,1.4,0-.1-1.1-1.6-1.5-1.9,5.9-.1,11.7-.8,17.7-.9l-.5-8.7h0Z"/>
      <path class="cls-16" d="M145.3,324.9c-1-3.8,3.2-7-2.8-9.5,5-.1,13-2.8,15.2,2,2.9,6.3-7.1,6.8-12.4,7.5Z"/>
    </g>
  </g>
  <path class="cls-16" d="M124.3,259.7c1.3,2.4.2,18.9.9,19.6s2.1,0,4.1.3c-3.7.8-7.6-.1-11.3,0l-1.7-1.1c.3-10,1.9-8.5,2-9,.6-3.8-2.3-12.9,6-9.7h0Z"/>
  <g>
    <path class="cls-13" d="M101.5,243.9c2.3,0,4.7.3,7.1.3s3.8-.3,5.6-.3c4.4,0,8.7,0,13.1-.4,3.3.8,5.2-.1,8.1-.1,7.5-1,6.4,6.4,6,12.1-9.2.2-18.4.8-27.6.8s0-.9-6.2-.9-3.9.8-5.1.8c-3.6,0-27.8,0-28.9-1-1.5-2.2-2.2-9.9.8-11,1.3-.5,23.5-.3,27.1-.3h0Z"/>
    <path class="cls-16" d="M141.4,255.5c2.5,0,5.9,2.3,7.2-1.3-.8-6.6,1.7-8.6-5.7-10.8,13.3-.3,23-4.2,24.5,4.8-4.8,7.6-11.4,8.5-20,9.6-4.3.6-21.9.5-23,.9,0,0,.2.7,0,.9-8.3-3.2-5.4,6-6,9.7,0,.5-1.7-1-2,9l1.7,1.1c-.9,0-1.8.2-2.8.2l-1.6-22.9.3-.4c9.2,0,18.4-.7,27.6-.8h-.1Z"/>
    <path class="cls-16" d="M142.2,243.3c6.8,1.7,4.6,3.3,5.2,8.4-1.2,2.8-4.3.9-6.6,1,.4-4.4,1.4-10.1-5.5-9.4h6.9Z"/>
  </g>
  <g>
    <path class="cls-16" d="M102.3,171.7c.6,0,5,.5,11.7.4.7,0,1.4-.1,2.1-.1,2.4,0,4.7-.3,7.1-.4,1.3,1.2,14.4-.2,17-.3h.7c.5.3,2.3.9,2.5.9l1.1,10.7c-8.6,0-17.4,1.1-26,1.3-.8,0-1.7-.2-2.5-.2h-13.5c-3.5,0-26.3.3-27.5-.4-3.1-1.8-2.6-9.9.4-11.4,1.2-.6,23.1-.6,26.7-.6h.2Z"/>
    <path class="cls-16" d="M151.6,184.8c2-.9-.7-10.6-1.5-11.4-1.6-1.5-4.6-.9-6.6-1.2-.2,0-2-.6-2.5-.9,7.2-.1,21.7-1.1,22.6,1.4,1.9,13.1-6.9,11.5-11.9,12.2h-.1Z"/>
    <path class="cls-16" d="M118.6,184.2c8.6-.2,17.3-1.2,26-1.3l-1.1-10.7c2.1.3,5-.3,6.6,1.2.9.8,3.5,10.6,1.5,11.4-9.5,1.3-19.1.6-28.6,2,1-2.7-9,1.1-4.4-2.6h0Z"/>
    <path class="cls-16" d="M140.2,171.3c-2.6,0-15.7,1.4-17,.3,5.6-.3,11.3-1.2,17-.3Z"/>
  </g>
  <g>
    <path class="cls-13" d="M104.1,221.5c1.1.4,2.4.5,3.6.5,2.2,6.6.8,13.8.5,20.5-1.4.7-4.9,0-6,.7-1-4-1.8-22.5,2-21.7h0Z"/>
    <path class="cls-1" d="M112.9,220.6c-.3.3-.3.5,0,.7-1.7.2-3.6.6-5.3.7-1.2,0-2.5-.1-3.6-.5v-.7c2.9,0,5.9-.1,8.8-.1h0Z"/>
    <path class="cls-18" d="M102.1,243.2c1.1-.7,4.6,0,6-.7,0,.4.9,1.3.5,1.7-2.4,0-4.8-.3-7.1-.3.2-.2.4-.6.7-.7h0Z"/>
    <path class="cls-2" d="M112.9,221.3c.9.6,1.5.5,1.6.8.4,1-.3,18.8-.4,21.8-1.8,0-3.7.3-5.6.3.4-.4-.5-1.3-.5-1.7.3-6.7,1.8-14-.5-20.5,1.7,0,3.6-.5,5.3-.7h0Z"/>
  </g>
  <g>
    <path class="cls-16" d="M102.6,208.1h12.7c3.3,0,23.5-.6,24.6-.1,0,0-.2.8.6,1.2l.9,9.5c-.3.2,0,.8-.1.9-1.2.8-25,1-28.4,1.1-2.9,0-5.9.2-8.8.1-9.8,0-19.9-.3-29.6-1-2.1-2.4-1.9-9.8,1.1-11.4,1.2-.6,23.5-.2,27.1-.3h0Z"/>
    <path class="cls-16" d="M116.1,184c.8,0,1.7.2,2.5.2-4.6,3.7,5.4,0,4.4,2.6,1.4,3.8-1,19,1,20.3,1.8,1.2,34-1.4,35.7-1,9.2,2.2,1,10.6-3.5,13.3-5.9,3.5-31.1,2.8-32.4,4-.7.7,1.2,16.9.4,19.5,1,.2,2,.4,3.1.7-4.3.4-8.7.3-13.1.4,0-3,.8-20.8.4-21.8,0-.3-.7-.2-1.6-.8-.3-.2-.3-.5,0-.7,3.4,0,27.3-.3,28.4-1.1,0,0-.2-.7.1-.9,7.4,4.8,1.6-14.9-.9-9.5-.8-.4-.5-1.2-.6-1.2-1.1-.5-21.3.1-24.6.1-.4-4.4.6-20.4.4-21.4-.3-1.8-.2-1-1.7-1.9.7-.1,1.6-.2,2.1-.8h-.1Z"/>
    <path class="cls-16" d="M141.5,218.7l-.9-9.5c2.5-5.4,8.3,14.3.9,9.5Z"/>
  </g>
</svg>